<svg xmlns="http://www.w3.org/2000/svg" width="25.158" height="27.252" viewBox="0 0 25.158 27.252">
  <g id="arrow-left-right" transform="translate(-4.498 -3.373)">
    <path id="Path_4" data-name="Path 4" d="M22.806,17.18a1.048,1.048,0,0,1,1.484,0l6.289,6.289a1.048,1.048,0,0,1,0,1.484L24.29,31.242a1.049,1.049,0,1,1-1.484-1.484l5.548-5.546-5.549-5.547a1.048,1.048,0,0,1,0-1.484Z" transform="translate(-1.231 -0.923)" fill-rule="evenodd"/>
    <path id="Path_5" data-name="Path 5" d="M4.5,23.289A1.048,1.048,0,0,1,5.548,22.24h22.01a1.048,1.048,0,1,1,0,2.1H5.548A1.048,1.048,0,0,1,4.5,23.289ZM12.578,3.681a1.048,1.048,0,0,1,0,1.484L7.03,10.711l5.549,5.547a1.049,1.049,0,1,1-1.484,1.484L4.806,11.454a1.048,1.048,0,0,1,0-1.484l6.289-6.289a1.048,1.048,0,0,1,1.484,0Z" fill-rule="evenodd"/>
    <path id="Path_6" data-name="Path 6" d="M5.625,11.173a1.048,1.048,0,0,1,1.048-1.048h22.01a1.048,1.048,0,1,1,0,2.1H6.673A1.048,1.048,0,0,1,5.625,11.173Z" transform="translate(-0.077 -0.462)" fill-rule="evenodd"/>
  </g>
</svg>
