<svg xmlns="http://www.w3.org/2000/svg" width="38.506" height="33.693" viewBox="0 0 38.506 33.693">
  <g id="image" transform="translate(-0.005 -2.25)">
    <path id="Path_555" data-name="Path 555" d="M33.7,4.657H4.818A2.407,2.407,0,0,0,2.412,7.063V31.129a2.407,2.407,0,0,0,2.407,2.407H33.7A2.407,2.407,0,0,0,36.1,31.129V7.063A2.407,2.407,0,0,0,33.7,4.657ZM4.818,2.25A4.813,4.813,0,0,0,0,7.063V31.129a4.813,4.813,0,0,0,4.813,4.813H33.7a4.813,4.813,0,0,0,4.813-4.813V7.063A4.813,4.813,0,0,0,33.7,2.25H4.818Z" transform="translate(0 0)" fill="#e5e5e5" fill-rule="evenodd"/>
    <path id="Path_556" data-name="Path 556" d="M25.469,17.226A1.2,1.2,0,0,1,26.857,17l9.091,4.686v10.83H2.255V27.7L8.623,22.04a1.2,1.2,0,0,1,1.516-.15l6.4,4.267,8.929-8.929Z" transform="translate(0.157 1.018)" fill="#e5e5e5"/>
    <path id="Path_557" data-name="Path 557" d="M10.365,16.22a3.61,3.61,0,1,0-3.61-3.61,3.61,3.61,0,0,0,3.61,3.61Z" transform="translate(0.47 0.47)" fill="#e5e5e5" fill-rule="evenodd"/>
  </g>
</svg>
