<svg id="lock-fill" xmlns="http://www.w3.org/2000/svg" width="12.837" height="18.089" viewBox="0 0 12.837 18.089">
  <path id="Path_549" data-name="Path 549" d="M5.625,18.084A2.334,2.334,0,0,1,7.959,15.75h8.169a2.334,2.334,0,0,1,2.334,2.334v5.835a2.334,2.334,0,0,1-2.334,2.334H7.959a2.334,2.334,0,0,1-2.334-2.334Z" transform="translate(-5.625 -8.164)" fill="#2f90d1"/>
  <path id="Path_550" data-name="Path 550" d="M10.125,5.21a4.085,4.085,0,1,1,8.169,0v3.5H17.127V5.21a2.918,2.918,0,1,0-5.835,0v3.5H10.125Z" transform="translate(-7.791 -1.125)" fill="#2f90d1" fill-rule="evenodd"/>
</svg>
