<svg xmlns="http://www.w3.org/2000/svg" width="21.147" height="14.803" viewBox="0 0 21.147 14.803">
  <g id="menu-left" transform="translate(-3 -7.5)">
    <path id="Path_1" data-name="Path 1" d="M3,8.552A1.052,1.052,0,0,1,4.052,7.5h8.47a1.052,1.052,0,0,1,0,2.1H4.052A1.052,1.052,0,0,1,3,8.552Z" transform="translate(0 0)" fill="#fff"/>
    <path id="Path_2" data-name="Path 2" d="M3,17.56a1.052,1.052,0,0,1,1.052-1.052H23.095a1.052,1.052,0,0,1,0,2.1H4.052A1.052,1.052,0,0,1,3,17.56Z" transform="translate(0 -2.658)" fill="#fff"/>
    <path id="Path_3" data-name="Path 3" d="M4.052,25.515a1.052,1.052,0,0,0,0,2.1h12.7a1.052,1.052,0,0,0,0-2.1Z" transform="translate(0 -5.316)" fill="#fff"/>
  </g>
</svg>
