<svg xmlns="http://www.w3.org/2000/svg" width="18.964" height="16.808" viewBox="0 0 18.964 16.808">
  <g id="Group_1" data-name="Group 1" transform="translate(0)">
    <g id="Group_31" data-name="Group 31" transform="translate(0)">
      <g id="more" transform="translate(0 12.067)">
        <path id="Path_44" data-name="Path 44" d="M6.955,19.366a2.372,2.372,0,1,1,0-4.741,2.372,2.372,0,1,1,0,4.741Z" transform="translate(-4.5 -14.625)" fill="#2f90d1"/>
        <path id="Path_45" data-name="Path 45" d="M16.958,19.366A2.372,2.372,0,1,1,19.413,17,2.414,2.414,0,0,1,16.958,19.366Z" transform="translate(-7.476 -14.625)" fill="#2f90d1"/>
        <path id="Path_46" data-name="Path 46" d="M26.956,19.366A2.372,2.372,0,1,1,29.415,17,2.414,2.414,0,0,1,26.956,19.366Z" transform="translate(-10.451 -14.625)" fill="#2f90d1"/>
      </g>
      <path id="Path_47" data-name="Path 47" d="M5.7.086H2.068L1.351,1.769H-.04L3.231-5.5H4.56L7.841,1.769H6.429ZM5.256-.973,3.885-4.15,2.525-.973Zm8.764-4.963v7.7H12.773V1.052a2.008,2.008,0,0,1-.794.592,2.682,2.682,0,0,1-1.044.2A2.922,2.922,0,0,1,9.5,1.488a2.537,2.537,0,0,1-1-1A3,3,0,0,1,8.132-1,2.968,2.968,0,0,1,8.5-2.489a2.546,2.546,0,0,1,1-1,2.922,2.922,0,0,1,1.438-.353,2.636,2.636,0,0,1,1.007.187,2.026,2.026,0,0,1,.779.561V-5.936ZM11.091.73a1.669,1.669,0,0,0,.841-.213,1.538,1.538,0,0,0,.592-.607A1.858,1.858,0,0,0,12.742-1a1.858,1.858,0,0,0-.218-.914,1.538,1.538,0,0,0-.592-.607,1.669,1.669,0,0,0-.841-.213,1.669,1.669,0,0,0-.841.213,1.538,1.538,0,0,0-.592.607A1.858,1.858,0,0,0,9.44-1a1.858,1.858,0,0,0,.218.914,1.538,1.538,0,0,0,.592.607A1.669,1.669,0,0,0,11.091.73Z" transform="translate(2.332 5.936)" fill="#2f90d1"/>
    </g>
  </g>
</svg>
