<svg xmlns="http://www.w3.org/2000/svg" viewBox="0 0 567.84 711.91"><defs><style>.cls-1{fill:#b7b7b7;}.cls-2{fill:#9b9b9b;isolation:isolate;opacity:0.1;}</style></defs><g id="Layer_2" data-name="Layer 2"><g id="Objects"><path class="cls-1" d="M450.7,489.17H103.77a4.41,4.41,0,0,1-4.49-4.12L101.39,4.76a4.7,4.7,0,0,1,1.19-3.39A4.7,4.7,0,0,1,105.78,0H360.49a4.31,4.31,0,0,1,2.29.64l92.5,55.69a4.39,4.39,0,0,1,2.2,3.48L455.19,484.4a4.58,4.58,0,0,1-4.39,4.76ZM107.43,480H448.78V62.74L359.21,9.16H110.55Z"/><path class="cls-1" d="M394.47,82.43a4.49,4.49,0,0,1-4-2.57l-34-73.54a4.49,4.49,0,0,1,.73-5.22,4.58,4.58,0,0,1,5.31,0L455,56.78a4.49,4.49,0,0,1-.92,8.06L395.47,83.16Zm-24-66.77,26.38,57.61,45.79-14.1Z"/><path class="cls-2" d="M362.41,116.86H124.28a1,1,0,0,1,0-2H362.41a1,1,0,0,1,0,2Z"/><path class="cls-2" d="M428.08,161.55H124.28a1,1,0,0,1,0-2h303.8a1,1,0,0,1,0,2Z"/><path class="cls-2" d="M428.08,206.16H124.28a1,1,0,0,1,0-2h303.8a1,1,0,0,1,0,2Z"/><path class="cls-2" d="M428.08,250.85H124.28a1,1,0,0,1,0-2h303.8a1,1,0,0,1,0,2Z"/><path class="cls-2" d="M428.08,295.45H124.28a1,1,0,0,1,0-2h303.8a1,1,0,0,1,0,2Z"/><path class="cls-2" d="M428.08,340.15H124.28a1,1,0,1,1,0-2h303.8a1,1,0,1,1,0,2Z"/><path class="cls-2" d="M428.08,385.67H124.28a1,1,0,0,1,0-2h303.8a1,1,0,0,1,0,2Z"/><path class="cls-2" d="M428.08,431.09H124.28a1,1,0,0,1,0-2h303.8a1,1,0,0,1,0,2Z"/><path class="cls-1" d="M231.17,220.63A18.33,18.33,0,0,1,214,240c-.38,0-.75,0-1.13,0a21.26,21.26,0,0,1-20.52-19.42,18.33,18.33,0,0,1,17.48-19.12l.84,0A21.26,21.26,0,0,1,231.17,220.63Z"/><path class="cls-1" d="M357.19,220.63a17.76,17.76,0,0,1-16,19.35,17.47,17.47,0,0,1-2.29.07,21.17,21.17,0,0,1-20.79-19.42,18.31,18.31,0,0,1,17.28-19.29c.35,0,.69,0,1,0A21.16,21.16,0,0,1,357.19,220.63Z"/><path class="cls-1" d="M392.45,346.38a4.3,4.3,0,0,1-4.39-4.12c-2.29-31.14-51.2-56.51-109-56.51-38.38,0-72.82,11.45-89.85,29.77a34.21,34.21,0,0,0-10.44,26.1,4.59,4.59,0,0,1-9.16.64,43.5,43.5,0,0,1,13.55-32.79c18.32-20.05,55.6-32.6,96.35-32.6,63.47,0,115.22,28.48,117.79,64.75a4.39,4.39,0,0,1-4,4.75h-.85Z"/><path class="cls-1" d="M159.73,181.43a4.62,4.62,0,0,1-3-1.19,4.48,4.48,0,0,1,0-6.32l19.14-21a4.57,4.57,0,0,1,6.32,0,4.4,4.4,0,0,1,0,6.22h0l-19.51,21A4.38,4.38,0,0,1,159.73,181.43Z"/><path class="cls-1" d="M383.29,181.43a4.77,4.77,0,0,1-3-1.19l-22.44-21a4.4,4.4,0,0,1-.1-6.22l.1-.1a4.5,4.5,0,0,1,6.23,0L386.31,174a4.39,4.39,0,0,1,0,6.21h0A4.72,4.72,0,0,1,383.29,181.43Z"/><path class="cls-1" d="M60.72,624.25H80.05v86.83H60.72l-41.4-54.41v54.41H0V624.25H18.32l42.59,55.87Z"/><path class="cls-1" d="M174,699.08a44.52,44.52,0,0,1-32.33,12.82,44.88,44.88,0,1,1,.64-89.75,44.16,44.16,0,0,1,31.69,13,45.34,45.34,0,0,1,0,64.11Zm-6.51-31.87A28.63,28.63,0,0,0,160,647.33a24.63,24.63,0,0,0-36.63,0A28.6,28.6,0,0,0,116,667.21a28.21,28.21,0,0,0,7.42,19.69,24.63,24.63,0,0,0,36.63,0,28.19,28.19,0,0,0,7.88-19.69Z"/><path class="cls-1" d="M303.06,635.61a40.86,40.86,0,0,1,12.37,31.6,42.69,42.69,0,0,1-12.09,32,51.06,51.06,0,0,1-36.64,11.82H236.75V624.25h30.68A51.49,51.49,0,0,1,303.06,635.61Zm-14.29,51.65a25.51,25.51,0,0,0,7.15-19.5,26.11,26.11,0,0,0-7.15-19.7,30.46,30.46,0,0,0-21.88-6.86H256.44V694h11.91A29,29,0,0,0,288.77,687.26Z"/><path class="cls-1" d="M391.54,711.08l-8.06-18.78H346.84l-8,18.78H318.45l37.46-86.83h18.32l37.91,86.83Zm-26.2-61-10.9,25.19h21.71Z"/><path class="cls-1" d="M452.62,641v70.07H433.21V641H408.66V624.25h68.51V641Z"/><path class="cls-1" d="M546.87,711.08l-8.15-18.78H502.08l-7.51,18.78H473.69l37.55-86.83h18.32l38.28,86.83Zm-26.2-61-11,25.19h21.53Z"/></g></g></svg>