<svg xmlns="http://www.w3.org/2000/svg" width="253.245" height="202.169" viewBox="0 0 253.245 202.169">
  <g id="Group_101" data-name="Group 101" transform="translate(-56.755 -332.387)">
    <g id="Group_100" data-name="Group 100" transform="translate(23.255 11.593)">
      <path id="Path_599" data-name="Path 599" d="M25.22,410.369c0,2.246,21.494,4.059,48,4.059s47.992-1.813,47.992-4.059S99.726,406.31,73.22,406.31,25.22,408.131,25.22,410.369Z" transform="translate(8.281 108.535)" fill="#e6ecef"/>
      <path id="Path_600" data-name="Path 600" d="M86.134,229.256a21.02,21.02,0,0,0-.236,5.73l.725.15H87.2l.583-.623.268-3.894-.733-2.27-5.218-3.6-.788-.307Z" transform="translate(-3.6 147.06)" fill="#ffbd1d"/>
      <path id="Path_601" data-name="Path 601" d="M81.38,235.452l2.065,5h6.763a20.942,20.942,0,0,0,3.775,4.138l-.221,7.259,5.044,2.065,4.587-4.642.158-.158a20.444,20.444,0,0,0,5.651.236h0l4.95,5.281,4.729-1.97.315-.134-.039-6.763a20.9,20.9,0,0,0,4.154-3.791h0l7.094.236h.158l2.073-5.044-4.8-4.729a20.729,20.729,0,0,0,.236-5.691h0l5.289-4.9-2.1-5.029h0l-6.755.039a20.691,20.691,0,0,0-3.728-4.091v-.142l.166-7.165-5.044-2.065h0l-4.729,4.776a21.036,21.036,0,0,0-5.517-.236l-.449-.473-4.571-4.816h-.047L95.6,204.729v6.763a20.973,20.973,0,0,0-4.154,3.807l-7.235-.252-2.065,5.044,4.792,4.729a20.769,20.769,0,0,0-.26,5.691h0Z" transform="translate(-3.615 151.677)" fill="#ff9a30"/>
      <ellipse id="Ellipse_13" data-name="Ellipse 13" cx="18.475" cy="18.475" rx="18.475" ry="18.475" transform="matrix(0.849, -0.529, 0.529, 0.849, 78.543, 374.449)" fill="#ff9a30" opacity="0.3"/>
      <ellipse id="Ellipse_14" data-name="Ellipse 14" cx="14.14" cy="14.14" rx="14.14" ry="14.14" transform="matrix(0.639, -0.769, 0.769, 0.639, 83.733, 381.717)" fill="#fffae4"/>
      <line id="Line_71" data-name="Line 71" y2="1.821" transform="translate(103.656 365.722)" fill="none" stroke="#e49f05" stroke-miterlimit="10" stroke-width="0.36"/>
      <line id="Line_72" data-name="Line 72" x1="1.293" y2="1.293" transform="translate(112.437 370.01)" fill="none" stroke="#e49f05" stroke-miterlimit="10" stroke-width="0.36"/>
      <line id="Line_73" data-name="Line 73" x1="1.821" transform="translate(115.991 380.169)" fill="none" stroke="#e49f05" stroke-miterlimit="10" stroke-width="0.36"/>
      <line id="Line_74" data-name="Line 74" x1="1.285" y1="1.285" transform="translate(112.232 388.958)" fill="none" stroke="#e49f05" stroke-miterlimit="10" stroke-width="0.36"/>
      <line id="Line_75" data-name="Line 75" y1="1.829" transform="translate(103.365 392.504)" fill="none" stroke="#e49f05" stroke-miterlimit="10" stroke-width="0.36"/>
      <line id="Line_76" data-name="Line 76" y1="1.293" x2="1.285" transform="translate(93.292 388.745)" fill="none" stroke="#e49f05" stroke-miterlimit="10" stroke-width="0.36"/>
      <line id="Line_77" data-name="Line 77" x1="1.821" transform="translate(89.414 379.878)" fill="none" stroke="#e49f05" stroke-miterlimit="10" stroke-width="0.36"/>
      <line id="Line_78" data-name="Line 78" x2="1.285" y2="1.285" transform="translate(93.591 369.9)" fill="none" stroke="#e49f05" stroke-miterlimit="10" stroke-width="0.36"/>
      <line id="Line_79" data-name="Line 79" x1="0.426" y2="1.04" transform="translate(108.717 366.762)" fill="none" stroke="#e49f05" stroke-miterlimit="10" stroke-width="0.36"/>
      <line id="Line_80" data-name="Line 80" x1="1.033" y2="0.433" transform="translate(115.897 374.479)" fill="none" stroke="#e49f05" stroke-miterlimit="10" stroke-width="0.36"/>
      <line id="Line_81" data-name="Line 81" x1="1.033" y1="0.433" transform="translate(115.952 385.009)" fill="none" stroke="#e49f05" stroke-miterlimit="10" stroke-width="0.36"/>
      <line id="Line_82" data-name="Line 82" x1="0.433" y1="1.04" transform="translate(108.843 392.189)" fill="none" stroke="#e49f05" stroke-miterlimit="10" stroke-width="0.36"/>
      <line id="Line_83" data-name="Line 83" y1="1.04" x2="0.426" transform="translate(98.312 392.244)" fill="none" stroke="#e49f05" stroke-miterlimit="10" stroke-width="0.36"/>
      <line id="Line_84" data-name="Line 84" y1="0.426" x2="1.033" transform="translate(90.525 385.143)" fill="none" stroke="#e49f05" stroke-miterlimit="10" stroke-width="0.36"/>
      <line id="Line_85" data-name="Line 85" x2="1.033" y2="0.426" transform="translate(90.47 374.613)" fill="none" stroke="#e49f05" stroke-miterlimit="10" stroke-width="0.36"/>
      <line id="Line_86" data-name="Line 86" x2="0.433" y2="1.04" transform="translate(98.179 366.818)" fill="none" stroke="#e49f05" stroke-miterlimit="10" stroke-width="0.36"/>
      <path id="Path_602" data-name="Path 602" d="M112.87,234.772a1.072,1.072,0,1,0,1.072-1.072,1.072,1.072,0,0,0-1.072,1.072Z" transform="translate(-10.286 145.098)" fill="#8cc64b"/>
      <path id="Path_603" data-name="Path 603" d="M112.73,232.942a1.371,1.371,0,0,0,1.371,1.379h.181l3.72,6.305,1.963.883a.378.378,0,0,0,.528-.418l-.41-2.12h0L114.9,234.03a1.072,1.072,0,0,0,.583-1.064,1.364,1.364,0,0,0-1.261-1.356l.875-6.857-.607-1.576a.331.331,0,0,0-.607,0l-.678,1.576h0l.631,6.849a1.316,1.316,0,0,0-1.1,1.34Z" transform="translate(-10.256 147.369)" fill="#3d3d3d" opacity="0.3"/>
      <path id="Path_604" data-name="Path 604" d="M114.249,223.012l.5,1.316a.315.315,0,0,1,0,.15l-.891,6.967-.788-7.023a.276.276,0,0,1,0-.158l.544-1.269a.319.319,0,1,1,.638.016Z" transform="translate(-10.325 147.431)" fill="#ff9a30"/>
      <path id="Path_605" data-name="Path 605" d="M120.784,243.724l-1.663-.741a.363.363,0,0,1-.158-.15L114.92,236l5.911,5.352a.323.323,0,0,1,.118.2l.339,1.781a.363.363,0,0,1-.5.394Z" transform="translate(-10.72 144.611)" fill="#ff9a30"/>
      <ellipse id="Ellipse_15" data-name="Ellipse 15" cx="1.371" cy="1.371" rx="1.371" ry="1.371" transform="translate(102.246 378.656)" fill="#e49f05"/>
      <ellipse id="Ellipse_16" data-name="Ellipse 16" cx="1.198" cy="1.198" rx="1.198" ry="1.198" transform="translate(102.419 378.83)" fill="#ff9a30"/>
      <path id="Path_606" data-name="Path 606" d="M90.446,210.54s7.488.213,3.523,8.741S90.446,210.54,90.446,210.54Z" transform="translate(-5.532 150.004)" fill="#1f3a71"/>
      <path id="Path_607" data-name="Path 607" d="M89.28,214.181s2.01,1.237,1.978,7.882a22.3,22.3,0,0,0,.9,2.435c.284.9-.284.954-1.048,1.332-.307,5.036-1.064,4.942-1.726,5.391s-6.55-.686-10.246-2.53-4.981-7.346-3.413-10.719S84.93,211.272,89.28,214.181Z" transform="translate(-2.278 149.469)" fill="#ffc8b0"/>
      <path id="Path_608" data-name="Path 608" d="M71.828,217.967c-.6,3.153.946,8,7.157,10.1,0,0,.552-1.915.946-3.783s5.659-4.02,7.945-6.061c.11-.1.221-.213.315-.315a4.729,4.729,0,0,0,.055-6.219c-1.277-1.576-4.1-4.185-9.167-2.467C74.563,210.755,72.561,214.05,71.828,217.967Z" transform="translate(-1.566 150.403)" fill="#1f3a71"/>
      <path id="Path_609" data-name="Path 609" d="M88.737,229.225c-.977,1.056-1.159,3.2-1.08,5.241l.071,1.033a32.038,32.038,0,0,0,.56,3.838l-7.165-.181a43.99,43.99,0,0,0-.173-6.9S91.047,226.719,88.737,229.225Z" transform="translate(-3.524 146.184)" fill="#ffc8b0"/>
      <path id="Path_610" data-name="Path 610" d="M88.279,236.714a21.429,21.429,0,0,1-4.729-2.4c2.01.654,4.682,1.371,4.682,1.371Z" transform="translate(-4.075 144.969)" fill="#f2a181"/>
      <path id="Path_611" data-name="Path 611" d="M89.684,298.507,78.492,286.44s-6.778,7.172-5.517,15.038c.623,3.87,1.742,5.9,2.112,7.74s1.2,25.639.741,27.318-3.1,6.227-4.485,11.184c-1.671,5.951-3.373,14.581-4.729,19.7s.883,12.035,1.364,10.294c4.138-14.881,14.975-32.008,16.741-39.48S87.848,316.879,89.684,298.507Z" transform="translate(-0.396 133.926)" fill="#ffbe9d"/>
      <path id="Path_612" data-name="Path 612" d="M70.533,388.59s-3.436,9.734-3.153,10.971c.173.788.93,3.3,1.1,3.665.071.142,2.53,2.1.9,2.057s-5.438-5.123-6.006-5.517a2.412,2.412,0,0,1-1.127-2.506,10.53,10.53,0,0,1,2.081-3.681,13.706,13.706,0,0,0,1.332-4.028Z" transform="translate(0.446 112.289)" fill="#ffbe9d"/>
      <path id="Path_613" data-name="Path 613" d="M70.446,407.371a9.9,9.9,0,0,0-2.648-2.112h0c-.3-.386-.544-.638-.426-.386.213.41-.875.623-1.411.181-1.876-1.505-2.412-3.744-3.334-4.808-1.324-1.513-.4-3.515-.26-3.846a8.842,8.842,0,0,0-2.7,1.206,5.036,5.036,0,0,0-1.427,1.576A21.835,21.835,0,0,1,57,402.138l1.781,1.419L60.5,401.98l.473.5a4.035,4.035,0,0,1,.914,1.876,10.393,10.393,0,0,0,.449,1.387,4.28,4.28,0,0,0,1.316,1.821l.788.623a3.153,3.153,0,0,0,2.01.717h3.523a.788.788,0,0,0,.788-.883,1.742,1.742,0,0,0-.315-.646Z" transform="translate(1.549 110.634)" fill="#1f3a71"/>
      <path id="Path_614" data-name="Path 614" d="M101.024,382.226c-.244-.323-3.1-1.056-4.414-1.742a7.953,7.953,0,0,1-2.9-3.31c-.236-.788.173-4.508.355-6.077,1.245-10.806,5.06-25.939,5.927-32.252,1.49-10.971,1.088-22.479-1.576-40.544L83.739,284.76s-5.163,7.819-4.39,15.811c.449,4.642,4.162,5.683,4.642,7.511s7.464,31.251,7.464,31.251A53.794,53.794,0,0,0,88.3,352.1c-.607,5.769,1.009,12.264.891,18.916-.055,1.3-.11,4.422-.583,5.375-.575,1.174-1.9,2.491-1.978,4.02a2.365,2.365,0,0,0,1.576,2.238c1.088.449,1.766-.142,2.152-.118,2.238.1,2.719,1.695,6.558,2.033a6.108,6.108,0,0,0,3.941-1.237.788.788,0,0,0,.166-1.1Z" transform="translate(-3.168 134.282)" fill="#ffbe9d"/>
      <path id="Path_615" data-name="Path 615" d="M103.078,408.521a2.8,2.8,0,0,1-.788.883,4.083,4.083,0,0,1-2.475.788H97.931a4.28,4.28,0,0,1-2.167-.583,10.93,10.93,0,0,1-1.222-.788,4.012,4.012,0,0,0-1.9-.875,5.515,5.515,0,0,0-1.214,0l-.134,2.27H88.7a12.769,12.769,0,0,0-.662-3.247,4.39,4.39,0,0,1,.189-1.986A8.961,8.961,0,0,1,89.9,402.35c.1.355.646,2.483,2.633,2.814,1.387.236,3.224,1.639,5.628,1.616.694,0,1.4-.859.985-1.04s.788,0,1.521.3a20.793,20.793,0,0,1,2.443,1.206C103.369,407.355,103.338,408.048,103.078,408.521Z" transform="translate(-5.018 109.374)" fill="#1f3a71"/>
      <path id="Path_616" data-name="Path 616" d="M66.47,263.753s.788,3.87,1.23,5.47,2.814,11.72,5.036,11.547S87.1,270.452,87.1,270.452l-1.718-3.444-10.7,5.139s-.969-11.578-1.813-14.337Z" transform="translate(-0.457 139.991)" fill="#ffc8b0"/>
      <path id="Path_617" data-name="Path 617" d="M70.39,265.365c1.135,4,3.31,10.167,4.146,11.326.378.52,7.551-2.073,7.567-4.855L74.67,263.41Z" transform="translate(-1.287 138.805)" fill="#f2a181"/>
      <path id="Path_618" data-name="Path 618" d="M76.267,242.27a12.942,12.942,0,0,0-6.5,2.207c-4.658,3.444-3.555,16.5-3.555,16.5s-.229.678,2.853.5a22.2,22.2,0,0,0,5.517-1.048l-.859-10.491Z" transform="translate(-0.378 143.283)" fill="#389fe5"/>
      <path id="Path_619" data-name="Path 619" d="M69.176,252.27s-.394,7.488.962,11.271a12.613,12.613,0,0,0,2.514-.331Z" transform="translate(-1.019 141.164)" fill="#389fe5"/>
      <path id="Path_620" data-name="Path 620" d="M78.78,242.442c.126-.843.355-1.836,1.143-2.167a2.364,2.364,0,0,1,.7-.15,22.746,22.746,0,0,1,4.564-.347,6.778,6.778,0,0,1,2.948.52c1.411.7,2.191,2.223,2.869,3.641Z" transform="translate(-3.065 143.812)" fill="#389fe5"/>
      <g id="Group_98" data-name="Group 98" transform="translate(75.715 383.582)">
        <path id="Path_621" data-name="Path 621" d="M78.78,242.442c.126-.843.355-1.836,1.143-2.167a2.364,2.364,0,0,1,.7-.15,22.746,22.746,0,0,1,4.564-.347,6.778,6.778,0,0,1,2.948.52c1.411.7,2.191,2.223,2.869,3.641Z" transform="translate(-78.78 -239.77)" fill="#389fe5"/>
      </g>
      <path id="Path_622" data-name="Path 622" d="M66.257,365.816c.946-4.169,3.366-14.92,5.092-19.484s4.114-9.458,4.2-10.246a65.731,65.731,0,0,0-.788-6.731.134.134,0,0,1,0-.1c0-.52-2.514-19.484-3.35-22.368a23.992,23.992,0,0,1-1.529-9.7c.292-5.194,4.422-11.389,5.517-12.516l19.121-.315s3.295,7.8,3.618,12.611c.67,10.152-.355,31.527-.355,31.527h0a79.6,79.6,0,0,1-.591,8.331c-.583,4.217-6.447,38.66-6.447,38.66a10.624,10.624,0,0,1-5.21-.575,3.658,3.658,0,0,0,.039-.741c.221-4.154-1.663-17.34,0-25.45s2.365-9.829,2.365-9.829l-1.821-8.828c0-.15-.063-.512-.118-.5a67.468,67.468,0,0,1-1.324,8.512c-.867,3.232-9.222,21.367-12.54,29.163-1.135,2.672-2.16,5.667-2.16,5.667s-3.941-.457-5.107-2.215A26.721,26.721,0,0,0,66.257,365.816Z" transform="translate(-0.118 134.369)" fill="#285faf"/>
      <path id="Path_623" data-name="Path 623" d="M95.194,272.262c-.678-1.316-1.261-6.873-1.033-8.292s1.576-2.365,2.207-5.73A12.524,12.524,0,0,0,94.359,249c-1.411-2.057-3.358-6.227-3.752-6.305-5.911-1.8-6.873-.938-10.845-.788a26.435,26.435,0,0,0-5.155.591c-2.136.473-4.729,1.182-5.139,4.083a29.163,29.163,0,0,0,1.261,13.265c.9,2.814,6.305,12.564,4.958,14.447a6.535,6.535,0,0,0-1.127,1.8c-.339,1.97,2.845,2.459,6.022,2.822a50.77,50.77,0,0,0,9.143-.055C98.654,278.26,95.47,272.814,95.194,272.262Z" transform="translate(-1.035 143.43)" fill="#2f90d1"/>
      <path id="Path_624" data-name="Path 624" d="M70.63,242.014c3.4,2.041,7.582,1.8,10.483,1.253-.142-2.325.063-7.054.063-7.054a60.045,60.045,0,0,0,.954,6.834,19.713,19.713,0,0,0,2.491-.741s-2.286-11.231-2.286-16.158c0-4.248,4.477-7.157,4.477-7.157l-7.566-9.781a11.941,11.941,0,0,0-7.645,8.875C70.756,221.655,70.63,242.014,70.63,242.014Z" transform="translate(-1.338 150.286)" fill="#1f3a71"/>
      <path id="Path_625" data-name="Path 625" d="M79.62,306.38a15.866,15.866,0,0,0,2.751,5.856l6.463,24.252s.118-1.017.244-2.207c-2.089-8.828-4.729-20.453-5.013-21.62C83.632,311.007,80.542,310.021,79.62,306.38Z" transform="translate(-3.242 129.703)" fill="#5275a0" opacity="0.35"/>
      <path id="Path_626" data-name="Path 626" d="M99.26,259.91s8.891,14.266,12.035,14.266c2.294,0,15.117-15.314,15.117-15.314L122.07,257.7l-10.483,7.22-6.361-10.475Z" transform="translate(-7.403 140.705)" fill="#ffc8b0"/>
      <path id="Path_627" data-name="Path 627" d="M137.542,251.4a5.125,5.125,0,0,1,.039-.788c.1-.583.489-1.072.623-1.639a7.969,7.969,0,0,0,.087-1.371c0-.52.355-1.4-.071-1.458.087-.331.213-.7.284-1.032s.039-.741-.252-.7c-.426.063-.906.638-1.182.906s-.93,1.293-1.253,1.687a4.776,4.776,0,0,1-1.576,1.269s.2-.37.047-.552-1.033.221-1.9.347c-.449.063-1.576,1.411-1.907,1.8a13.937,13.937,0,0,0-.788,3.255,6.846,6.846,0,0,1-1.892,2.766l3.736,1.844c.087,0,.5-.5.552-.56a2.529,2.529,0,0,1,.843-.686c1.151-1.119,2.853-1.671,3.838-2.971a3.791,3.791,0,0,0,.788-2.065Z" transform="translate(-13.448 142.83)" fill="#ffc8b0"/>
      <path id="Path_628" data-name="Path 628" d="M135.273,249.281a5.092,5.092,0,0,1-1.624.969c-.4.213-.418.418-.859.631.638.126.631-.268,1.576-.631a1.789,1.789,0,0,0,1.111-.788.15.15,0,0,0-.229-.181Z" transform="translate(-14.505 141.804)" fill="#f2a181"/>
      <path id="Path_629" data-name="Path 629" d="M89.38,241.58c1.892.1,7.961.512,11.689,5.99a49.342,49.342,0,0,1,5.4,9.521c-.5,1.695-3.681,5.131-6.613,5.1-.15-.11-4.461-5.4-5.289-9.718Z" transform="translate(-5.31 143.429)" fill="#389fe5"/>
    </g>
    <g id="Group_99" data-name="Group 99" transform="translate(-11 12.882)">
      <path id="Path_571" data-name="Path 571" d="M199.82,324.6s-15.84-10.541-20.32-21.233a17.4,17.4,0,0,1,7.1,3.528c2.287,3.232,7.737,8.191,11.436,11.417C198.566,320.08,199.158,322.152,199.82,324.6Z" transform="translate(-6.125 136.173)" fill="#fcccb1" opacity="0.25"/>
      <path id="Path_575" data-name="Path 575" d="M146.29,339.727c-.372-2.092-6.219-15.122-12.986-11.65-4.02,2.079-3.3,9.722,2.98,15.5-1.26-1.2-2.653-2.52-4.335-2.879a3.365,3.365,0,0,0-2.7.863,3.15,3.15,0,0,0-.807,2.268,8.928,8.928,0,0,0,3.969,7.63c-1.386-.781-2.59-1.752-4.177-1.89a1.941,1.941,0,0,0-1.626.706c-.258.5-.239,2.369,2.816,3.78C116.96,351.692,116.236,357,120.716,357h36.733" transform="translate(16.55 127.25)" fill="#f8f8f8"/>
      <path id="Path_576" data-name="Path 576" d="M175.312,318.855c-.592-3.352-6.767-24.422-17.6-18.827-6.433,3.327-5.28,15.563,4.776,24.806-1.978-1.89-4.253-4.07-6.931-4.606a5.406,5.406,0,0,0-4.329,1.386,5.071,5.071,0,0,0-1.3,3.629,14.265,14.265,0,0,0,6.351,12.223c-2.224-1.26-4.152-2.8-6.691-3.012a3.087,3.087,0,0,0-2.6,1.134c-.384.737-.384,3.78,4.505,6.03-19.948-3.78-21.114,4.726-13.937,4.726h47.388" transform="translate(10.879 137.757)" fill="#f1f1f1"/>
      <path id="Path_577" data-name="Path 577" d="M362.675,339.727c.365-2.092,6.212-15.122,12.979-11.65,4.02,2.079,3.3,9.722-2.98,15.5,1.229-1.2,2.653-2.52,4.335-2.879a3.365,3.365,0,0,1,2.7.863,3.194,3.194,0,0,1,.813,2.268,8.934,8.934,0,0,1-3.976,7.63c1.392-.781,2.6-1.752,4.177-1.89a1.934,1.934,0,0,1,1.626.706c.258.5.246,2.369-2.816,3.78C392,351.692,392.723,357,388.25,357H351.51" transform="translate(-69.756 127.25)" fill="#f8f8f8"/>
      <path id="Path_578" data-name="Path 578" d="M326.5,318.855c.592-3.352,6.767-24.422,17.6-18.827,6.439,3.327,5.28,15.563-4.77,24.806,1.972-1.89,4.247-4.07,6.931-4.606a5.393,5.393,0,0,1,4.322,1.386,5.044,5.044,0,0,1,1.3,3.629,14.277,14.277,0,0,1-6.345,12.223c2.224-1.26,4.146-2.8,6.685-3.012a3.079,3.079,0,0,1,2.6,1.134c.378.737.391,3.78-4.505,6.03,19.948-3.78,21.114,4.726,13.943,4.726H316.87" transform="translate(-56.942 137.757)" fill="#f1f1f1"/>
      <path id="Path_579" data-name="Path 579" d="M242.358,210.565a13.319,13.319,0,0,1-9.993-11.852v-.819a1.647,1.647,0,0,1,0-.246,1.56,1.56,0,0,1,0-.246v-.819a13.332,13.332,0,0,1,9.993-11.852,48.969,48.969,0,0,0,35.864-47.167,48.317,48.317,0,0,0-.806-8.859c-.088-.491-.183-.977-.29-1.455-.076-.353-.151-.706-.239-1.059a.227.227,0,0,0,0-.063c-.044-.183-.088-.365-.139-.548-.082-.353-.17-.693-.271-1.04-.145-.529-.3-1.052-.46-1.575h-1.67c.057.17.113.34.158.51a.491.491,0,0,1,.031.088q.145.441.265.888c.057.2.113.384.158.58.088.309.17.63.246.92.05.2.1.391.139.58.082.315.151.63.214.939a1.951,1.951,0,0,0,.069.321c.019.107,0,.082,0,.126q.113.536.208,1.077a47.356,47.356,0,0,1-33.91,54.186,14.91,14.91,0,0,0-11.159,13.3v2.306a14.879,14.879,0,0,0,11.159,13.3,47.362,47.362,0,0,1,33.911,54.186,46.09,46.09,0,0,1-3.673,11.5H186.426a46.329,46.329,0,0,1-3.68-11.505,47.4,47.4,0,0,1,33.917-54.186,14.911,14.911,0,0,0,11.159-13.3v-2.306a14.894,14.894,0,0,0-11.159-13.3,47.4,47.4,0,0,1-33.917-54.186c.088-.5.189-.989.3-1.487v-.038c.107-.479.214-.958.334-1.437v-.082c.094-.365.189-.737.3-1.1v-.088c.032-.139.076-.284.12-.422.069-.265.151-.523.233-.781a.493.493,0,0,1,.032-.088c.044-.17.1-.34.158-.51h-1.67c-.164.523-.315,1.046-.46,1.575-.1.347-.189.687-.271,1.04-.05.183-.095.365-.139.548a.226.226,0,0,0,0,.063c-.088.353-.164.706-.239,1.059-.107.479-.2.964-.29,1.455a48.317,48.317,0,0,0-.806,8.859,48.96,48.96,0,0,0,35.868,47.171,13.316,13.316,0,0,1,9.995,11.854v2.13a13.326,13.326,0,0,1-9.987,11.852A48.982,48.982,0,0,0,185.393,279.4h87.782a48.984,48.984,0,0,0-30.817-68.835Z" transform="translate(-6.435 202.912)" fill="#389fe5" opacity="0.2"/>
      <path id="Path_580" data-name="Path 580" d="M277.584,257.712a47.138,47.138,0,0,1-.781,8.575,46.093,46.093,0,0,1-3.673,11.5H187.382a46.327,46.327,0,0,1-3.68-11.505A47.4,47.4,0,0,1,217.62,212.1a14.911,14.911,0,0,0,11.159-13.3v-2.306a14.894,14.894,0,0,0-11.159-13.3A47.4,47.4,0,0,1,183.7,129c.088-.5.189-.989.3-1.487v-.038c.1-.479.214-.958.334-1.437v-.082c.1-.4.2-.788.321-1.185s.227-.806.353-1.2l.189-.63h90.1l.189.63q.145.441.265.888c.057.2.113.384.158.58.088.309.17.63.246.92.05.2.1.391.139.58.082.315.151.63.214.939l.095.447q.113.536.208,1.077a47.356,47.356,0,0,1-33.91,54.186,14.91,14.91,0,0,0-11.159,13.3v2.306A14.879,14.879,0,0,0,242.9,212.1,47.476,47.476,0,0,1,277.584,257.712Z" transform="translate(-7.391 202.919)" fill="#fff"/>
      <path id="Path_581" data-name="Path 581" d="M277.584,257.712a47.138,47.138,0,0,1-.781,8.575,46.093,46.093,0,0,1-3.673,11.5H187.382a46.327,46.327,0,0,1-3.68-11.505A47.4,47.4,0,0,1,217.62,212.1a14.911,14.911,0,0,0,11.159-13.3v-2.306a14.894,14.894,0,0,0-11.159-13.3A47.4,47.4,0,0,1,183.7,129c.088-.5.189-.989.3-1.487v-.038c.1-.479.214-.958.334-1.437v-.082c.1-.4.2-.788.321-1.185s.227-.806.353-1.2l.189-.63h90.1l.189.63q.145.441.265.888c.057.2.113.384.158.58.088.309.17.63.246.92.05.2.1.391.139.58.082.315.151.63.214.939l.095.447q.113.536.208,1.077a47.356,47.356,0,0,1-33.91,54.186,14.91,14.91,0,0,0-11.159,13.3v2.306A14.879,14.879,0,0,0,242.9,212.1,47.476,47.476,0,0,1,277.584,257.712Z" transform="translate(-7.391 202.919)" fill="#d7ecfa" opacity="0.5"/>
      <path id="Path_582" data-name="Path 582" d="M196.06,181.832s7.466,12.236,25.367,17.863c4.587,1.348,6.131,2.338,8.771,4.776s3.541,6.71,3.434,10.081c-.031,2.621,1.468,40.955,1.468,45.731,0,4.505.586,1.172.454.2.466-27.131,1.021-47.092,1.021-47.092s1.619-8.525,4.133-9.7,11.619-5.406,15.342-6.452,12.734-9.249,12.734-9.249,11.442-16.319,12.141-18.411-5.173-2.287-5.173-2.287Z" transform="translate(-12.251 186.513)" fill="#ff9a30"/>
      <ellipse id="Ellipse_12" data-name="Ellipse 12" cx="43.954" cy="9.079" rx="43.954" ry="9.079" transform="matrix(0.988, -0.156, 0.156, 0.988, 180.665, 358.133)" fill="#fdcf33"/>
      <g id="Group_96" data-name="Group 96" transform="translate(180.86 331.32)" opacity="0.5">
        <path id="Path_583" data-name="Path 583" d="M229.807,201.057a4.788,4.788,0,0,1-1.55-.258,45.681,45.681,0,0,1-9.451-4.448,4.776,4.776,0,0,1,5.078-8.09,36.084,36.084,0,0,0,7.447,3.5,4.776,4.776,0,0,1-1.525,9.294Z" transform="translate(-200.698 -152.294)" fill="#fff"/>
        <path id="Path_584" data-name="Path 584" d="M201.814,166.282a4.776,4.776,0,0,1-4.032-2.212c-8.323-13.087-6.181-27.78-6.086-28.4a4.78,4.78,0,0,1,9.451,1.443c-.032.189-1.632,11.883,4.7,21.832a4.77,4.77,0,0,1-1.474,6.591,4.72,4.72,0,0,1-2.558.75Z" transform="translate(-191.38 -131.607)" fill="#fff"/>
      </g>
      <g id="Group_97" data-name="Group 97" transform="translate(180.86 420.477)" opacity="0.5">
        <path id="Path_585" data-name="Path 585" d="M229.729,273.11a4.788,4.788,0,0,0-1.55.258,45.364,45.364,0,0,0-9.451,4.455,4.776,4.776,0,1,0,5.078,8.084,36.081,36.081,0,0,1,7.447-3.5,4.776,4.776,0,0,0-1.556-9.294Z" transform="translate(-200.619 -273.11)" fill="#fff"/>
        <path id="Path_586" data-name="Path 586" d="M201.814,295.47a4.776,4.776,0,0,0-4.032,2.212c-8.323,13.087-6.181,27.786-6.086,28.4a4.78,4.78,0,0,0,9.451-1.437c-.032-.2-1.632-11.889,4.7-21.838a4.77,4.77,0,0,0-1.474-6.591,4.719,4.719,0,0,0-2.558-.75Z" transform="translate(-191.38 -281.382)" fill="#fff"/>
      </g>
      <path id="Path_587" data-name="Path 587" d="M242.358,210.565a13.319,13.319,0,0,1-9.993-11.852v-.819a1.647,1.647,0,0,1,0-.246,1.56,1.56,0,0,1,0-.246v-.819a13.332,13.332,0,0,1,9.993-11.852,48.969,48.969,0,0,0,35.864-47.167,48.317,48.317,0,0,0-.806-8.859c-.088-.491-.183-.977-.29-1.455-.076-.353-.151-.706-.239-1.059a.227.227,0,0,0,0-.063c-.044-.183-.088-.365-.139-.548-.082-.353-.17-.693-.271-1.04-.145-.529-.3-1.052-.46-1.575h-1.67c.057.164.107.34.158.51a.491.491,0,0,1,.031.088q.145.441.265.888c.057.2.113.384.158.58.088.309.17.63.246.92.05.2.1.391.139.58.082.315.151.63.214.939a1.466,1.466,0,0,0,.069.321c.025.107,0,.082,0,.126q.113.536.208,1.077a47.356,47.356,0,0,1-33.91,54.186,14.91,14.91,0,0,0-11.159,13.3v2.306a14.879,14.879,0,0,0,11.159,13.3,47.362,47.362,0,0,1,33.911,54.186,46.09,46.09,0,0,1-3.673,11.5H186.426a46.329,46.329,0,0,1-3.68-11.505,47.4,47.4,0,0,1,33.917-54.186,14.911,14.911,0,0,0,11.159-13.3v-2.306a14.894,14.894,0,0,0-11.159-13.3,47.4,47.4,0,0,1-33.917-54.186c.088-.5.189-1,.3-1.487v-.038c.107-.479.214-.958.334-1.437v-.082c.094-.365.189-.737.3-1.1v-.088c.038-.139.076-.284.12-.422.069-.265.151-.523.233-.781a.493.493,0,0,1,.032-.088c.05-.17.1-.347.158-.51h-1.67c-.164.523-.315,1.046-.46,1.575-.1.347-.189.687-.271,1.04-.05.183-.095.365-.139.548a.226.226,0,0,0,0,.063c-.088.353-.164.706-.239,1.059-.107.479-.2.964-.29,1.455a48.317,48.317,0,0,0-.806,8.859,48.96,48.96,0,0,0,35.868,47.171,13.316,13.316,0,0,1,9.995,11.854v2.13a13.326,13.326,0,0,1-9.987,11.852A48.982,48.982,0,0,0,185.393,279.4h87.782a48.984,48.984,0,0,0-30.817-68.835Z" transform="translate(-6.435 202.912)" fill="#b7ddf6"/>
      <path id="Path_588" data-name="Path 588" d="M283.208,364.381h0a4.631,4.631,0,0,1-4.631,4.625H165.851a4.631,4.631,0,0,1-4.631-4.625h0a4.631,4.631,0,0,1,4.631-4.631H278.577A4.631,4.631,0,0,1,283.208,364.381Z" transform="translate(0.638 115.316)" fill="#2f90d1"/>
      <path id="Path_589" data-name="Path 589" d="M314.851,169.424c.076.353-.863.844-2.1,1.109s-2.293.189-2.369-.158.87-.844,2.1-1.109S314.782,169.078,314.851,169.424Z" transform="translate(-54.538 185.84)" fill="#ff9a30"/>
      <path id="Path_590" data-name="Path 590" d="M311.317,175.767c.069.353-.51.769-1.3.939s-1.487,0-1.563-.334.5-.769,1.3-.932S311.222,175.415,311.317,175.767Z" transform="translate(-53.827 183.523)" fill="#ff9a30"/>
      <path id="Path_591" data-name="Path 591" d="M305.547,174.078c.076.347-.5.769-1.3.932s-1.487,0-1.563-.328.51-.769,1.3-.932S305.471,173.732,305.547,174.078Z" transform="translate(-51.692 184.148)" fill="#ff9a30"/>
      <path id="Path_592" data-name="Path 592" d="M266.706,179.28c.044.189-.271.41-.7.5s-.8,0-.838-.183.271-.41.7-.5S266.668,179.091,266.706,179.28Z" transform="translate(-37.814 182.159)" fill="#ff9a30"/>
      <path id="Path_593" data-name="Path 593" d="M297.316,169.98c.044.189-.271.41-.7.5s-.8,0-.838-.183.271-.41.693-.5S297.278,169.791,297.316,169.98Z" transform="translate(-49.138 185.599)" fill="#ff9a30"/>
      <path id="Path_594" data-name="Path 594" d="M286.222,180.665c.038.189-.277.416-.7.5s-.807,0-.844-.176.271-.416.7-.5S286.178,180.476,286.222,180.665Z" transform="translate(-45.032 181.644)" fill="#ff9a30"/>
      <path id="Path_595" data-name="Path 595" d="M271.411,187.745c.044.189-.271.416-.7.5s-.8,0-.844-.176.277-.416.7-.5S271.374,187.556,271.411,187.745Z" transform="translate(-39.553 179.025)" fill="#ff9a30"/>
      <path id="Path_596" data-name="Path 596" d="M239.085,307.122l-.321-.132-.328.132s-2.823,22.052-33.066,33.11h66.788C241.908,329.156,239.085,307.122,239.085,307.122Z" transform="translate(-15.695 134.834)" fill="#ff9a30"/>
      <path id="Path_597" data-name="Path 597" d="M277.376,121.125c0,2.457-20.981,4.455-46.871,4.455s-46.865-2-46.865-4.455,20.981-4.455,46.865-4.455S277.376,118.667,277.376,121.125Z" transform="translate(-7.656 205.239)" fill="#b9dbef"/>
      <path id="Path_598" data-name="Path 598" d="M278.477,112.858H165.751a4.631,4.631,0,1,0,0,9.256H278.477a4.631,4.631,0,1,0,0-9.256Z" transform="translate(0.738 206.65)" fill="#2f90d1"/>
      <path id="Path_640" data-name="Path 640" d="M347.716,358.117a2.653,2.653,0,0,1,.807.063v.038a2.874,2.874,0,0,1-.807.069C347.609,358.275,347.609,358.111,347.716,358.117Zm-1.2,0a.756.756,0,0,0,.473.032v-.038a3.888,3.888,0,0,1-.41-.132.079.079,0,0,0-.063.145Zm-7.492-15.752a4.367,4.367,0,0,1,.523-.844c.094-.107-.063-.271-.158-.158a4.35,4.35,0,0,0-.6.87c-.076.132.158.29.233.113ZM338,343.928c0,.183.246.258.277.076s.076-.384.12-.573.132-.3.107-.441h0c-.145.044-.221.233-.29.359A1.95,1.95,0,0,0,338,343.928Zm3.951-4.41a15.525,15.525,0,0,1,1.411-.926c.151-.082.044-.34-.113-.277a6.929,6.929,0,0,0-1.544.775c-.258.2-.013.624.246.447Z" transform="translate(-64.758 123.25)" fill="#fdd622" opacity="0.6"/>
    </g>
  </g>
</svg>
