<svg xmlns="http://www.w3.org/2000/svg" xmlns:xlink="http://www.w3.org/1999/xlink" viewBox="0 0 419.04 413.49"><defs><style>.cls-1{fill:#d2d2d1;}.cls-2{clip-path:url(#clip-path);}.cls-3{fill:#e6e7e7;}.cls-4{fill:#3290ce;}</style><clipPath id="clip-path"><path class="cls-1" d="M10.57,227.08a168.44,168.44,0,1,1,216.5,99.32A168.43,168.43,0,0,1,10.57,227.08Z"/></clipPath></defs><g id="Layer_2" data-name="Layer 2"><g id="Layer_1-2" data-name="Layer 1"><path class="cls-1" d="M10.57,227.08a168.44,168.44,0,1,1,216.5,99.32A168.43,168.43,0,0,1,10.57,227.08Z"/><g class="cls-2"><path class="cls-3" d="M38.46,276.74C2.15,178.89,52,70.12,149.9,33.81S356.53,47.39,392.84,145.25,379.25,351.88,281.4,388.19,74.77,374.6,38.46,276.74Z"/><path class="cls-4" d="M192.06,38.71a2.1,2.1,0,0,0-1-3.68,17.68,17.68,0,0,1-6.52-2.45,14.25,14.25,0,0,0-11.34-1.7,1.81,1.81,0,0,0-1,2.91c1.93,2.43,3.23,5.52,7.6,7A13,13,0,0,0,192.06,38.71Z"/><path class="cls-4" d="M207.87,36.58a2.09,2.09,0,0,0-.65-3.75,17.58,17.58,0,0,1-6.28-3,14.22,14.22,0,0,0-11.15-2.69A1.82,1.82,0,0,0,188.55,30c1.71,2.59,2.74,5.78,7,7.59A12.91,12.91,0,0,0,207.87,36.58Z"/><path class="cls-4" d="M223.82,35.84a2.11,2.11,0,0,0-.32-3.8,17.29,17.29,0,0,1-6-3.53,14.22,14.22,0,0,0-10.88-3.65,1.81,1.81,0,0,0-1.47,2.69c1.47,2.73,2.21,6,6.27,8.17A12.94,12.94,0,0,0,223.82,35.84Z"/><path class="cls-4" d="M239.76,36.49a2.1,2.1,0,0,0,0-3.81,17.6,17.6,0,0,1-5.66-4,14.24,14.24,0,0,0-10.52-4.58,1.81,1.81,0,0,0-1.71,2.55c1.24,2.84,1.7,6.17,5.55,8.68A12.92,12.92,0,0,0,239.76,36.49Z"/><path class="cls-4" d="M255.59,38.53a2.1,2.1,0,0,0,.34-3.79,17.79,17.79,0,0,1-5.29-4.53,14.18,14.18,0,0,0-10.08-5.47,1.8,1.8,0,0,0-1.92,2.39c1,2.94,1.15,6.29,4.77,9.13A12.91,12.91,0,0,0,255.59,38.53Z"/><path class="cls-4" d="M271.18,41.94a2.1,2.1,0,0,0,.67-3.75,17.66,17.66,0,0,1-4.88-5,14.18,14.18,0,0,0-9.56-6.33,1.81,1.81,0,0,0-2.12,2.22c.72,3,.59,6.36,4,9.51A12.94,12.94,0,0,0,271.18,41.94Z"/><path class="cls-4" d="M286.42,46.69a2.1,2.1,0,0,0,1-3.67A17.49,17.49,0,0,1,283,37.65a14.26,14.26,0,0,0-9-7.15,1.81,1.81,0,0,0-2.31,2c.46,3.06,0,6.39,3.11,9.82A12.91,12.91,0,0,0,286.42,46.69Z"/><path class="cls-4" d="M301.18,52.76a2.1,2.1,0,0,0,1.31-3.57,17.38,17.38,0,0,1-3.94-5.74,14.2,14.2,0,0,0-8.32-7.9,1.8,1.8,0,0,0-2.47,1.82c.18,3.09-.53,6.37,2.23,10.05A12.94,12.94,0,0,0,301.18,52.76Z"/><path class="cls-4" d="M315.35,60.09A2.1,2.1,0,0,0,317,56.65a17.6,17.6,0,0,1-3.42-6.06A14.21,14.21,0,0,0,306,42a1.82,1.82,0,0,0-2.63,1.59c-.08,3.1-1.07,6.31,1.36,10.22A12.92,12.92,0,0,0,315.35,60.09Z"/><path class="cls-4" d="M328.83,68.63a2.1,2.1,0,0,0,1.92-3.29A17.5,17.5,0,0,1,327.87,59,14.28,14.28,0,0,0,321,49.77a1.82,1.82,0,0,0-2.75,1.36c-.35,3.09-1.62,6.19.46,10.29A12.93,12.93,0,0,0,328.83,68.63Z"/><path class="cls-4" d="M341.52,78.31a2.1,2.1,0,0,0,2.2-3.11,17.31,17.31,0,0,1-2.32-6.56,14.22,14.22,0,0,0-6-9.79A1.81,1.81,0,0,0,332.54,60c-.61,3-2.15,6-.44,10.29A12.91,12.91,0,0,0,341.52,78.31Z"/><path class="cls-4" d="M353.32,89.06a2.1,2.1,0,0,0,2.46-2.91A17.58,17.58,0,0,1,354,79.41a14.25,14.25,0,0,0-5.12-10.27A1.8,1.8,0,0,0,346,70c-.89,3-2.68,5.81-1.34,10.21A12.91,12.91,0,0,0,353.32,89.06Z"/><path class="cls-4" d="M364.13,100.8a2.1,2.1,0,0,0,2.7-2.69,17.55,17.55,0,0,1-1.14-6.86,14.2,14.2,0,0,0-4.2-10.68,1.81,1.81,0,0,0-3,.6c-1.14,2.88-3.17,5.55-2.22,10.06A12.94,12.94,0,0,0,364.13,100.8Z"/><path class="cls-4" d="M373.88,113.43a2.1,2.1,0,0,0,2.93-2.44,17.62,17.62,0,0,1-.55-6.94,14.18,14.18,0,0,0-3.25-11,1.81,1.81,0,0,0-3.05.33c-1.38,2.78-3.64,5.26-3.09,9.83A12.92,12.92,0,0,0,373.88,113.43Z"/><path class="cls-4" d="M382.5,126.87a2.1,2.1,0,0,0,3.12-2.18,17.58,17.58,0,0,1,.07-7,14.23,14.23,0,0,0-2.29-11.25,1.81,1.81,0,0,0-3.06.07c-1.63,2.65-4.09,4.92-3.93,9.53A12.9,12.9,0,0,0,382.5,126.87Z"/><path class="cls-4" d="M389.91,141a2.1,2.1,0,0,0,3.3-1.89,17.38,17.38,0,0,1,.67-6.93,14.25,14.25,0,0,0-1.29-11.4,1.82,1.82,0,0,0-3.07-.2c-1.84,2.49-4.5,4.54-4.74,9.14A12.89,12.89,0,0,0,389.91,141Z"/><path class="cls-4" d="M396.05,155.73a2.1,2.1,0,0,0,3.46-1.6,17.37,17.37,0,0,1,1.27-6.84,14.23,14.23,0,0,0-.29-11.47,1.82,1.82,0,0,0-3-.47c-2.05,2.32-4.87,4.14-5.52,8.69A12.92,12.92,0,0,0,396.05,155.73Z"/><path class="cls-4" d="M400.89,170.93a2.1,2.1,0,0,0,3.59-1.28,17.47,17.47,0,0,1,1.86-6.71,14.19,14.19,0,0,0,.7-11.45,1.81,1.81,0,0,0-3-.74c-2.25,2.14-5.21,3.7-6.26,8.19A12.93,12.93,0,0,0,400.89,170.93Z"/><path class="cls-4" d="M404.39,186.51a2.1,2.1,0,0,0,3.68-1,17.89,17.89,0,0,1,2.44-6.52,14.21,14.21,0,0,0,1.71-11.34,1.82,1.82,0,0,0-2.91-1c-2.43,1.93-5.52,3.23-6.95,7.6A13,13,0,0,0,404.39,186.51Z"/><path class="cls-4" d="M406.52,202.32a2.1,2.1,0,0,0,3.75-.65,17.58,17.58,0,0,1,3-6.28A14.19,14.19,0,0,0,416,184.23a1.81,1.81,0,0,0-2.81-1.23c-2.58,1.71-5.77,2.74-7.58,7A12.91,12.91,0,0,0,406.52,202.32Z"/><path class="cls-4" d="M407.26,218.27a2.1,2.1,0,0,0,3.79-.32,17.65,17.65,0,0,1,3.54-6,14.22,14.22,0,0,0,3.65-10.88,1.81,1.81,0,0,0-2.7-1.47c-2.72,1.47-6,2.22-8.16,6.27A12.91,12.91,0,0,0,407.26,218.27Z"/><path class="cls-4" d="M406.61,234.21a2.1,2.1,0,0,0,3.81,0,17.45,17.45,0,0,1,4-5.66A14.2,14.2,0,0,0,419,218a1.81,1.81,0,0,0-2.55-1.71c-2.85,1.24-6.17,1.69-8.68,5.55A12.92,12.92,0,0,0,406.61,234.21Z"/><path class="cls-4" d="M404.57,250a2.1,2.1,0,0,0,3.79.34,17.62,17.62,0,0,1,4.52-5.29A14.2,14.2,0,0,0,418.37,235a1.82,1.82,0,0,0-2.4-1.92c-2.94,1-6.29,1.15-9.13,4.77A12.91,12.91,0,0,0,404.57,250Z"/><path class="cls-4" d="M401.16,265.63a2.1,2.1,0,0,0,3.75.67,17.2,17.2,0,0,1,5-4.87,14.24,14.24,0,0,0,6.34-9.57,1.81,1.81,0,0,0-2.22-2.12c-3,.72-6.36.59-9.51,3.95A12.91,12.91,0,0,0,401.16,265.63Z"/><path class="cls-4" d="M396.4,280.86a2.1,2.1,0,0,0,3.67,1,17.52,17.52,0,0,1,5.38-4.42,14.29,14.29,0,0,0,7.15-9,1.82,1.82,0,0,0-2-2.31c-3.06.46-6.39,0-9.82,3.11A12.91,12.91,0,0,0,396.4,280.86Z"/><path class="cls-4" d="M390.34,295.63a2.1,2.1,0,0,0,3.57,1.31,17.53,17.53,0,0,1,5.74-3.94,14.23,14.23,0,0,0,7.9-8.32,1.82,1.82,0,0,0-1.82-2.48c-3.09.19-6.37-.52-10.05,2.24A12.92,12.92,0,0,0,390.34,295.63Z"/><path class="cls-4" d="M383,309.8a2.09,2.09,0,0,0,3.44,1.62,17.6,17.6,0,0,1,6.06-3.42,14.24,14.24,0,0,0,8.6-7.6,1.82,1.82,0,0,0-1.59-2.63c-3.11-.08-6.31-1.07-10.21,1.36A12.91,12.91,0,0,0,383,309.8Z"/><path class="cls-4" d="M374.47,323.29a2.1,2.1,0,0,0,3.29,1.91,17.68,17.68,0,0,1,6.33-2.89,14.19,14.19,0,0,0,9.23-6.82,1.81,1.81,0,0,0-1.36-2.75c-3.08-.35-6.18-1.62-10.29.46A12.94,12.94,0,0,0,374.47,323.29Z"/><path class="cls-4" d="M364.79,336a2.1,2.1,0,0,0,3.11,2.2,17.31,17.31,0,0,1,6.56-2.32,14.24,14.24,0,0,0,9.79-6,1.81,1.81,0,0,0-1.12-2.86c-3-.62-6-2.15-10.28-.43A12.9,12.9,0,0,0,364.79,336Z"/><path class="cls-4" d="M354,347.77a2.1,2.1,0,0,0,2.91,2.46,17.23,17.23,0,0,1,6.74-1.74A14.23,14.23,0,0,0,374,343.37a1.82,1.82,0,0,0-.86-2.95c-3-.88-5.81-2.66-10.21-1.33A12.89,12.89,0,0,0,354,347.77Z"/><path class="cls-4" d="M342.3,358.58a2.1,2.1,0,0,0,2.69,2.7,17.52,17.52,0,0,1,6.86-1.14,14.22,14.22,0,0,0,10.68-4.2,1.81,1.81,0,0,0-.6-3c-2.88-1.14-5.55-3.17-10.06-2.22A12.94,12.94,0,0,0,342.3,358.58Z"/><path class="cls-4" d="M329.67,368.33a2.1,2.1,0,0,0,2.44,2.93,17.22,17.22,0,0,1,6.93-.54,14.25,14.25,0,0,0,11-3.26,1.81,1.81,0,0,0-.33-3c-2.78-1.38-5.26-3.64-9.83-3.09A13,13,0,0,0,329.67,368.33Z"/><path class="cls-4" d="M316.23,377a2.1,2.1,0,0,0,2.18,3.12,17.7,17.7,0,0,1,6.95.06,14.17,14.17,0,0,0,11.25-2.28,1.82,1.82,0,0,0-.06-3.07c-2.65-1.62-4.93-4.08-9.52-3.92A12.9,12.9,0,0,0,316.23,377Z"/><path class="cls-4" d="M302.1,384.36a2.1,2.1,0,0,0,1.89,3.3,17.39,17.39,0,0,1,6.93.67,14.21,14.21,0,0,0,11.4-1.3,1.81,1.81,0,0,0,.2-3.06c-2.49-1.85-4.55-4.49-9.14-4.74A12.89,12.89,0,0,0,302.1,384.36Z"/><path class="cls-4" d="M287.37,390.5A2.1,2.1,0,0,0,289,394a17.4,17.4,0,0,1,6.84,1.27,14.22,14.22,0,0,0,11.48-.3,1.81,1.81,0,0,0,.46-3c-2.32-2-4.14-4.87-8.69-5.52A12.91,12.91,0,0,0,287.37,390.5Z"/><path class="cls-4" d="M272.16,395.35a2.1,2.1,0,0,0,1.3,3.58,17.52,17.52,0,0,1,6.7,1.86,14.23,14.23,0,0,0,11.45.71,1.82,1.82,0,0,0,.73-3c-2.13-2.25-3.69-5.21-8.18-6.26A12.91,12.91,0,0,0,272.16,395.35Z"/><path class="cls-4" d="M256.59,398.84a2.1,2.1,0,0,0,1,3.68,17.43,17.43,0,0,1,6.51,2.44,14.24,14.24,0,0,0,11.35,1.71,1.82,1.82,0,0,0,1-2.91c-1.93-2.43-3.23-5.52-7.6-6.95A13,13,0,0,0,256.59,398.84Z"/><path class="cls-4" d="M240.78,401a2.1,2.1,0,0,0,.64,3.75,17.45,17.45,0,0,1,6.29,3,14.22,14.22,0,0,0,11.15,2.68,1.81,1.81,0,0,0,1.24-2.81c-1.71-2.58-2.74-5.77-7-7.58A12.88,12.88,0,0,0,240.78,401Z"/><path class="cls-4" d="M224.83,401.71a2.1,2.1,0,0,0,.32,3.79,17.54,17.54,0,0,1,6,3.54A14.21,14.21,0,0,0,242,412.68,1.81,1.81,0,0,0,243.5,410c-1.48-2.72-2.22-6-6.27-8.16A12.94,12.94,0,0,0,224.83,401.71Z"/><path class="cls-4" d="M208.89,401.06a2.1,2.1,0,0,0,0,3.8,17.72,17.72,0,0,1,5.67,4.05,14.26,14.26,0,0,0,10.53,4.58,1.81,1.81,0,0,0,1.69-2.55c-1.23-2.85-1.68-6.17-5.54-8.69A12.89,12.89,0,0,0,208.89,401.06Z"/><path class="cls-4" d="M193.06,399a2.1,2.1,0,0,0-.35,3.79,17.41,17.41,0,0,1,5.29,4.53,14.26,14.26,0,0,0,10.08,5.48,1.83,1.83,0,0,0,1.93-2.4c-1-2.94-1.15-6.29-4.77-9.13A12.91,12.91,0,0,0,193.06,399Z"/><path class="cls-4" d="M177.47,395.61a2.1,2.1,0,0,0-.67,3.75,17.88,17.88,0,0,1,4.88,5,14.14,14.14,0,0,0,9.56,6.34,1.81,1.81,0,0,0,2.12-2.22c-.73-3-.59-6.36-4-9.51A12.88,12.88,0,0,0,177.47,395.61Z"/><path class="cls-4" d="M162.24,390.85a2.11,2.11,0,0,0-1,3.68,17.37,17.37,0,0,1,4.43,5.37,14.21,14.21,0,0,0,9,7.14,1.81,1.81,0,0,0,2.31-2c-.46-3.06,0-6.39-3.11-9.82A12.92,12.92,0,0,0,162.24,390.85Z"/><path class="cls-4" d="M147.47,384.79a2.1,2.1,0,0,0-1.31,3.57,17.7,17.7,0,0,1,3.94,5.73,14.19,14.19,0,0,0,8.32,7.91,1.81,1.81,0,0,0,2.47-1.82c-.19-3.09.53-6.37-2.24-10.05A12.89,12.89,0,0,0,147.47,384.79Z"/><path class="cls-4" d="M133.29,377.46a2.1,2.1,0,0,0-1.61,3.44A17.44,17.44,0,0,1,135.1,387a14.3,14.3,0,0,0,7.6,8.6,1.82,1.82,0,0,0,2.63-1.6c.08-3.09,1.07-6.3-1.37-10.2A12.86,12.86,0,0,0,133.29,377.46Z"/><path class="cls-4" d="M119.82,368.92a2.1,2.1,0,0,0-1.92,3.29,17.5,17.5,0,0,1,2.88,6.33,14.23,14.23,0,0,0,6.82,9.23,1.82,1.82,0,0,0,2.76-1.36c.34-3.08,1.62-6.18-.46-10.29A12.92,12.92,0,0,0,119.82,368.92Z"/><path class="cls-4" d="M107.13,359.24a2.1,2.1,0,0,0-2.2,3.11,17.31,17.31,0,0,1,2.32,6.56,14.24,14.24,0,0,0,6,9.79,1.81,1.81,0,0,0,2.85-1.11c.62-3,2.16-6,.45-10.3A13,13,0,0,0,107.13,359.24Z"/><path class="cls-4" d="M95.33,348.49a2.1,2.1,0,0,0-2.46,2.91,17.23,17.23,0,0,1,1.74,6.74,14.23,14.23,0,0,0,5.12,10.27,1.82,1.82,0,0,0,3-.86c.87-3,2.66-5.81,1.33-10.22A12.93,12.93,0,0,0,95.33,348.49Z"/><path class="cls-4" d="M84.51,336.75a2.11,2.11,0,0,0-2.7,2.69A17.33,17.33,0,0,1,83,346.3,14.2,14.2,0,0,0,87.16,357a1.81,1.81,0,0,0,3-.6c1.13-2.88,3.17-5.55,2.22-10.06A12.92,12.92,0,0,0,84.51,336.75Z"/><path class="cls-4" d="M74.76,324.12a2.1,2.1,0,0,0-2.92,2.44,17.4,17.4,0,0,1,.54,6.93,14.28,14.28,0,0,0,3.25,11,1.82,1.82,0,0,0,3.06-.34c1.38-2.77,3.63-5.25,3.08-9.82A12.9,12.9,0,0,0,74.76,324.12Z"/><path class="cls-4" d="M66.16,310.68A2.1,2.1,0,0,0,63,312.86a17.77,17.77,0,0,1-.07,7,14.2,14.2,0,0,0,2.29,11.24,1.8,1.8,0,0,0,3.06-.07c1.63-2.64,4.09-4.92,3.93-9.51A12.9,12.9,0,0,0,66.16,310.68Z"/><path class="cls-4" d="M58.74,296.55a2.09,2.09,0,0,0-3.3,1.89,17.57,17.57,0,0,1-.67,6.93,14.17,14.17,0,0,0,1.3,11.4,1.81,1.81,0,0,0,3.06.2c1.84-2.49,4.49-4.54,4.74-9.14A12.89,12.89,0,0,0,58.74,296.55Z"/><path class="cls-4" d="M52.6,281.82a2.1,2.1,0,0,0-3.46,1.6,17.55,17.55,0,0,1-1.27,6.84,14.23,14.23,0,0,0,.3,11.47,1.81,1.81,0,0,0,3,.47c2-2.32,4.87-4.14,5.52-8.69A12.91,12.91,0,0,0,52.6,281.82Z"/><path class="cls-4" d="M47.75,266.61a2.1,2.1,0,0,0-3.58,1.29,17.34,17.34,0,0,1-1.86,6.71,14.21,14.21,0,0,0-.7,11.46,1.81,1.81,0,0,0,3,.72c2.25-2.13,5.21-3.7,6.26-8.18A12.93,12.93,0,0,0,47.75,266.61Z"/><path class="cls-4" d="M44.25,251a2.1,2.1,0,0,0-3.68,1,17.4,17.4,0,0,1-2.43,6.51,14.2,14.2,0,0,0-1.7,11.35,1.8,1.8,0,0,0,2.9,1c2.43-1.93,5.52-3.23,6.95-7.6A12.92,12.92,0,0,0,44.25,251Z"/><path class="cls-4" d="M42.13,235.22a2.1,2.1,0,0,0-3.75.65,17.62,17.62,0,0,1-3,6.29,14.18,14.18,0,0,0-2.68,11.15,1.8,1.8,0,0,0,2.8,1.23c2.59-1.71,5.79-2.73,7.59-7A12.93,12.93,0,0,0,42.13,235.22Z"/><path class="cls-4" d="M41.39,219.28a2.11,2.11,0,0,0-3.8.32,17.54,17.54,0,0,1-3.53,6,14.18,14.18,0,0,0-3.64,10.88A1.81,1.81,0,0,0,33.11,238c2.72-1.47,6-2.22,8.16-6.28A12.92,12.92,0,0,0,41.39,219.28Z"/><path class="cls-4" d="M42,203.34a2.1,2.1,0,0,0-3.81,0,17.52,17.52,0,0,1-4,5.67,14.2,14.2,0,0,0-4.58,10.52,1.8,1.8,0,0,0,2.55,1.7c2.84-1.23,6.17-1.69,8.68-5.54A12.92,12.92,0,0,0,42,203.34Z"/><path class="cls-4" d="M44.08,187.51a2.1,2.1,0,0,0-3.79-.35,17.51,17.51,0,0,1-4.52,5.3,14.22,14.22,0,0,0-5.48,10.08,1.8,1.8,0,0,0,2.39,1.91c2.94-1,6.29-1.14,9.13-4.76A12.91,12.91,0,0,0,44.08,187.51Z"/><path class="cls-4" d="M47.49,171.92a2.1,2.1,0,0,0-3.75-.67,17.5,17.5,0,0,1-5,4.87,14.26,14.26,0,0,0-6.33,9.57,1.81,1.81,0,0,0,2.22,2.12c3-.72,6.36-.59,9.51-3.95A12.91,12.91,0,0,0,47.49,171.92Z"/><path class="cls-4" d="M52.25,156.69a2.1,2.1,0,0,0-3.67-1,17.66,17.66,0,0,1-5.38,4.42,14.25,14.25,0,0,0-7.15,9,1.81,1.81,0,0,0,2,2.31c3.08-.46,6.4,0,9.83-3.11A12.93,12.93,0,0,0,52.25,156.69Z"/><path class="cls-4" d="M58.31,141.92a2.09,2.09,0,0,0-3.57-1.31A17.55,17.55,0,0,1,49,144.55a14.25,14.25,0,0,0-7.91,8.32,1.81,1.81,0,0,0,1.81,2.47c3.1-.18,6.38.53,10.06-2.24A12.91,12.91,0,0,0,58.31,141.92Z"/><path class="cls-4" d="M65.64,127.75a2.1,2.1,0,0,0-3.44-1.62,17.6,17.6,0,0,1-6.06,3.42,14.24,14.24,0,0,0-8.6,7.6,1.81,1.81,0,0,0,1.59,2.62c3.11.09,6.31,1.08,10.21-1.35A12.89,12.89,0,0,0,65.64,127.75Z"/><path class="cls-4" d="M74.18,114.26a2.1,2.1,0,0,0-3.29-1.91,17.48,17.48,0,0,1-6.34,2.88,14.26,14.26,0,0,0-9.23,6.83,1.82,1.82,0,0,0,1.36,2.75c3.09.35,6.19,1.62,10.3-.46A12.94,12.94,0,0,0,74.18,114.26Z"/><path class="cls-4" d="M83.86,101.58a2.1,2.1,0,0,0-3.11-2.2,17.31,17.31,0,0,1-6.56,2.32,14.24,14.24,0,0,0-9.79,6,1.8,1.8,0,0,0,1.11,2.85c3,.62,6,2.16,10.3.44A12.9,12.9,0,0,0,83.86,101.58Z"/><path class="cls-4" d="M94.61,89.78a2.1,2.1,0,0,0-2.91-2.46A17.57,17.57,0,0,1,85,89.06a14.22,14.22,0,0,0-10.28,5.12,1.82,1.82,0,0,0,.86,2.95c3,.88,5.81,2.67,10.21,1.33A13,13,0,0,0,94.61,89.78Z"/><path class="cls-4" d="M106.34,79a2.1,2.1,0,0,0-2.68-2.7,17.36,17.36,0,0,1-6.86,1.15,14.2,14.2,0,0,0-10.68,4.2,1.81,1.81,0,0,0,.6,3c2.89,1.14,5.55,3.17,10,2.22A12.88,12.88,0,0,0,106.34,79Z"/><path class="cls-4" d="M119,69.21a2.1,2.1,0,0,0-2.44-2.92,17.63,17.63,0,0,1-6.94.54,14.2,14.2,0,0,0-11,3.26,1.81,1.81,0,0,0,.34,3c2.77,1.38,5.25,3.63,9.82,3.08A12.92,12.92,0,0,0,119,69.21Z"/><path class="cls-4" d="M132.42,60.6a2.1,2.1,0,0,0-2.18-3.12,17.58,17.58,0,0,1-7-.07A14.2,14.2,0,0,0,112,59.7a1.81,1.81,0,0,0,.06,3.06c2.65,1.62,4.93,4.08,9.52,3.93A12.9,12.9,0,0,0,132.42,60.6Z"/><path class="cls-4" d="M146.55,53.19a2.1,2.1,0,0,0-1.89-3.3,17.57,17.57,0,0,1-6.93-.67,14.21,14.21,0,0,0-11.4,1.29,1.82,1.82,0,0,0-.2,3.07c2.49,1.84,4.55,4.49,9.14,4.74A12.9,12.9,0,0,0,146.55,53.19Z"/><path class="cls-4" d="M161.28,47a2.1,2.1,0,0,0-1.6-3.45,17.4,17.4,0,0,1-6.84-1.27,14.22,14.22,0,0,0-11.48.3,1.81,1.81,0,0,0-.46,3c2.32,2.05,4.14,4.87,8.69,5.52A12.92,12.92,0,0,0,161.28,47Z"/><path class="cls-4" d="M176.49,42.2a2.1,2.1,0,0,0-1.3-3.58,17.52,17.52,0,0,1-6.7-1.86,14.21,14.21,0,0,0-11.46-.7,1.8,1.8,0,0,0-.72,3c2.13,2.25,3.69,5.22,8.17,6.27A12.94,12.94,0,0,0,176.49,42.2Z"/><path class="cls-4" d="M174.69,22.33a2.13,2.13,0,0,0-1-3.74,17.74,17.74,0,0,1-6.63-2.49,14.49,14.49,0,0,0-11.56-1.73,1.85,1.85,0,0,0-1,3c2,2.47,3.29,5.62,7.74,7.07A13.14,13.14,0,0,0,174.69,22.33Z"/><path class="cls-4" d="M190.79,20.17a2.14,2.14,0,0,0-.66-3.82,17.88,17.88,0,0,1-6.4-3.05,14.44,14.44,0,0,0-11.36-2.73,1.84,1.84,0,0,0-1.25,2.85c1.74,2.64,2.78,5.89,7.09,7.73A13.17,13.17,0,0,0,190.79,20.17Z"/><path class="cls-4" d="M207,19.41a2.14,2.14,0,0,0-.33-3.86,17.77,17.77,0,0,1-6.1-3.6,14.52,14.52,0,0,0-11.08-3.71A1.84,1.84,0,0,0,188,11c1.5,2.78,2.26,6.1,6.39,8.31A13.16,13.16,0,0,0,207,19.41Z"/><path class="cls-4" d="M223.25,20.08a2.14,2.14,0,0,0,0-3.88,17.8,17.8,0,0,1-5.76-4.11,14.48,14.48,0,0,0-10.72-4.67,1.85,1.85,0,0,0-1.73,2.6c1.26,2.9,1.72,6.28,5.64,8.84A13.18,13.18,0,0,0,223.25,20.08Z"/><path class="cls-4" d="M239.36,22.15a2.14,2.14,0,0,0,.36-3.86,17.71,17.71,0,0,1-5.39-4.6,14.48,14.48,0,0,0-10.27-5.58,1.85,1.85,0,0,0-1.95,2.44c1,3,1.17,6.4,4.85,9.29A13.11,13.11,0,0,0,239.36,22.15Z"/><path class="cls-4" d="M255.24,25.62a2.13,2.13,0,0,0,.68-3.81,17.62,17.62,0,0,1-5-5.06,14.48,14.48,0,0,0-9.74-6.45,1.85,1.85,0,0,0-2.16,2.26c.73,3.07.6,6.48,4,9.68A13.14,13.14,0,0,0,255.24,25.62Z"/><path class="cls-4" d="M270.74,30.47a2.14,2.14,0,0,0,1-3.74,17.87,17.87,0,0,1-4.5-5.47A14.51,14.51,0,0,0,258.11,14,1.84,1.84,0,0,0,255.77,16c.46,3.12,0,6.51,3.16,10A13.16,13.16,0,0,0,270.74,30.47Z"/><path class="cls-4" d="M285.77,36.64A2.13,2.13,0,0,0,287.11,33a17.94,17.94,0,0,1-4-5.85,14.47,14.47,0,0,0-8.48-8A1.84,1.84,0,0,0,272.11,21c.19,3.15-.53,6.48,2.28,10.23A13.13,13.13,0,0,0,285.77,36.64Z"/><path class="cls-4" d="M300.2,44.1a2.13,2.13,0,0,0,1.65-3.5,17.89,17.89,0,0,1-3.48-6.17,14.47,14.47,0,0,0-7.74-8.75A1.84,1.84,0,0,0,288,27.3c-.08,3.15-1.09,6.41,1.38,10.39A13.11,13.11,0,0,0,300.2,44.1Z"/><path class="cls-4" d="M313.93,52.8a2.14,2.14,0,0,0,1.95-3.35A17.84,17.84,0,0,1,312.94,43,14.49,14.49,0,0,0,306,33.6,1.85,1.85,0,0,0,303.2,35c-.36,3.13-1.65,6.29.46,10.47A13.19,13.19,0,0,0,313.93,52.8Z"/><path class="cls-4" d="M326.85,62.65a2.14,2.14,0,0,0,2.23-3.17,17.82,17.82,0,0,1-2.36-6.68,14.49,14.49,0,0,0-6.1-10A1.84,1.84,0,0,0,317.71,44c-.63,3.09-2.2,6.12-.45,10.47A13.17,13.17,0,0,0,326.85,62.65Z"/><path class="cls-4" d="M338.86,73.59a2.13,2.13,0,0,0,2.49-3,17.92,17.92,0,0,1-1.76-6.85,14.54,14.54,0,0,0-5.21-10.47,1.85,1.85,0,0,0-3,.88c-.9,3-2.72,5.92-1.36,10.4A13.15,13.15,0,0,0,338.86,73.59Z"/><path class="cls-4" d="M349.86,85.54a2.14,2.14,0,0,0,2.76-2.73,17.77,17.77,0,0,1-1.17-7A14.49,14.49,0,0,0,347.17,65a1.84,1.84,0,0,0-3.06.61c-1.16,2.94-3.22,5.65-2.26,10.24A13.13,13.13,0,0,0,349.86,85.54Z"/><path class="cls-4" d="M359.79,98.4a2.14,2.14,0,0,0,3-2.48,17.84,17.84,0,0,1-.56-7.06,14.42,14.42,0,0,0-3.31-11.2,1.84,1.84,0,0,0-3.1.34c-1.41,2.82-3.71,5.35-3.14,10A13.1,13.1,0,0,0,359.79,98.4Z"/><path class="cls-4" d="M368.56,112.08a2.13,2.13,0,0,0,3.18-2.21,18,18,0,0,1,.06-7.09,14.47,14.47,0,0,0-2.32-11.45,1.84,1.84,0,0,0-3.12.08c-1.65,2.69-4.16,5-4,9.68A13.18,13.18,0,0,0,368.56,112.08Z"/><path class="cls-4" d="M376.1,126.47a2.13,2.13,0,0,0,3.36-1.93,17.84,17.84,0,0,1,.69-7.05,14.51,14.51,0,0,0-1.32-11.61,1.85,1.85,0,0,0-3.12-.2c-1.88,2.54-4.58,4.63-4.83,9.31A13.13,13.13,0,0,0,376.1,126.47Z"/><path class="cls-4" d="M382.36,141.47a2.14,2.14,0,0,0,3.52-1.64,17.86,17.86,0,0,1,1.29-7,14.46,14.46,0,0,0-.3-11.67,1.84,1.84,0,0,0-3.09-.48c-2.09,2.36-5,4.21-5.62,8.85A13.15,13.15,0,0,0,382.36,141.47Z"/><path class="cls-4" d="M387.29,156.94a2.13,2.13,0,0,0,3.64-1.31,17.89,17.89,0,0,1,1.9-6.82,14.47,14.47,0,0,0,.72-11.67,1.85,1.85,0,0,0-3-.74c-2.29,2.17-5.31,3.76-6.37,8.33A13.13,13.13,0,0,0,387.29,156.94Z"/><path class="cls-4" d="M390.85,172.8a2.14,2.14,0,0,0,3.75-1,17.77,17.77,0,0,1,2.48-6.63,14.45,14.45,0,0,0,1.73-11.56,1.85,1.85,0,0,0-3-1c-2.47,2-5.61,3.29-7.07,7.74A13.14,13.14,0,0,0,390.85,172.8Z"/><path class="cls-4" d="M393,188.9a2.13,2.13,0,0,0,3.81-.67,17.67,17.67,0,0,1,3.06-6.38,14.51,14.51,0,0,0,2.73-11.37,1.85,1.85,0,0,0-2.86-1.25c-2.64,1.74-5.89,2.78-7.73,7.09A13.15,13.15,0,0,0,393,188.9Z"/><path class="cls-4" d="M393.77,205.13a2.14,2.14,0,0,0,3.86-.33,17.93,17.93,0,0,1,3.6-6.1,14.48,14.48,0,0,0,3.71-11.08,1.84,1.84,0,0,0-2.74-1.5c-2.78,1.51-6.1,2.26-8.31,6.39A13.16,13.16,0,0,0,393.77,205.13Z"/><path class="cls-4" d="M393.1,221.36a2.14,2.14,0,0,0,3.88,0,18.09,18.09,0,0,1,4.12-5.77,14.45,14.45,0,0,0,4.66-10.71,1.85,1.85,0,0,0-2.6-1.73c-2.89,1.26-6.27,1.72-8.83,5.64A13.16,13.16,0,0,0,393.1,221.36Z"/><path class="cls-4" d="M391,237.47a2.14,2.14,0,0,0,3.86.36,17.71,17.71,0,0,1,4.6-5.39,14.45,14.45,0,0,0,5.58-10.27,1.84,1.84,0,0,0-2.44-1.95c-3,1-6.4,1.17-9.29,4.85A13.14,13.14,0,0,0,391,237.47Z"/><path class="cls-4" d="M387.56,253.35a2.13,2.13,0,0,0,3.81.68,17.88,17.88,0,0,1,5.06-5,14.5,14.5,0,0,0,6.45-9.74,1.85,1.85,0,0,0-2.26-2.16c-3.07.74-6.48.61-9.68,4A13.14,13.14,0,0,0,387.56,253.35Z"/><path class="cls-4" d="M382.71,268.86a2.14,2.14,0,0,0,3.74,1,18,18,0,0,1,5.47-4.51,14.5,14.5,0,0,0,7.28-9.13,1.84,1.84,0,0,0-2.06-2.35c-3.12.46-6.51,0-10,3.16A13.19,13.19,0,0,0,382.71,268.86Z"/><path class="cls-4" d="M376.54,283.88a2.14,2.14,0,0,0,3.64,1.34,17.78,17.78,0,0,1,5.84-4,14.49,14.49,0,0,0,8-8.47,1.84,1.84,0,0,0-1.85-2.52c-3.15.19-6.49-.53-10.23,2.28A13.13,13.13,0,0,0,376.54,283.88Z"/><path class="cls-4" d="M369.08,298.31a2.14,2.14,0,0,0,3.51,1.65,17.74,17.74,0,0,1,6.16-3.48,14.52,14.52,0,0,0,8.76-7.74,1.85,1.85,0,0,0-1.63-2.67c-3.15-.08-6.42-1.09-10.39,1.38A13.12,13.12,0,0,0,369.08,298.31Z"/><path class="cls-4" d="M360.38,312a2.15,2.15,0,0,0,3.36,1.95,17.68,17.68,0,0,1,6.45-2.94,14.47,14.47,0,0,0,9.39-6.94,1.85,1.85,0,0,0-1.39-2.8c-3.13-.36-6.29-1.65-10.47.47A13.16,13.16,0,0,0,360.38,312Z"/><path class="cls-4" d="M350.53,325a2.14,2.14,0,0,0,3.17,2.23,17.82,17.82,0,0,1,6.68-2.36,14.49,14.49,0,0,0,10-6.1,1.84,1.84,0,0,0-1.13-2.91c-3.09-.63-6.13-2.2-10.48-.45A13.17,13.17,0,0,0,350.53,325Z"/><path class="cls-4" d="M339.59,337a2.14,2.14,0,0,0,3,2.5,17.74,17.74,0,0,1,6.86-1.77,14.52,14.52,0,0,0,10.46-5.21,1.85,1.85,0,0,0-.88-3c-3-.9-5.91-2.72-10.4-1.36A13.15,13.15,0,0,0,339.59,337Z"/><path class="cls-4" d="M327.64,348a2.14,2.14,0,0,0,2.73,2.75,17.77,17.77,0,0,1,7-1.17,14.47,14.47,0,0,0,10.87-4.28,1.84,1.84,0,0,0-.61-3.06c-2.93-1.16-5.65-3.23-10.23-2.26A13.14,13.14,0,0,0,327.64,348Z"/><path class="cls-4" d="M314.78,357.9a2.14,2.14,0,0,0,2.48,3,17.85,17.85,0,0,1,7.06-.55A14.49,14.49,0,0,0,335.53,357a1.84,1.84,0,0,0-.34-3.1c-2.83-1.41-5.35-3.7-10-3.15A13.17,13.17,0,0,0,314.78,357.9Z"/><path class="cls-4" d="M301.1,366.67a2.14,2.14,0,0,0,2.21,3.18,17.85,17.85,0,0,1,7.09.07,14.51,14.51,0,0,0,11.45-2.33,1.84,1.84,0,0,0-.07-3.12c-2.69-1.65-5-4.16-9.69-4A13.15,13.15,0,0,0,301.1,366.67Z"/><path class="cls-4" d="M286.71,374.21a2.13,2.13,0,0,0,1.93,3.36,18,18,0,0,1,7.05.68,14.5,14.5,0,0,0,11.61-1.31,1.85,1.85,0,0,0,.2-3.12c-2.53-1.88-4.63-4.58-9.3-4.83A13.16,13.16,0,0,0,286.71,374.21Z"/><path class="cls-4" d="M271.72,380.47a2.14,2.14,0,0,0,1.63,3.52,17.67,17.67,0,0,1,7,1.29A14.49,14.49,0,0,0,292,385a1.85,1.85,0,0,0,.48-3.09c-2.37-2.09-4.22-5-8.86-5.62A13.13,13.13,0,0,0,271.72,380.47Z"/><path class="cls-4" d="M256.24,385.4a2.13,2.13,0,0,0,1.31,3.64,18,18,0,0,1,6.83,1.9,14.49,14.49,0,0,0,11.66.72,1.85,1.85,0,0,0,.74-3c-2.17-2.3-3.76-5.32-8.32-6.38A13.17,13.17,0,0,0,256.24,385.4Z"/><path class="cls-4" d="M240.39,389a2.14,2.14,0,0,0,1,3.75,17.88,17.88,0,0,1,6.63,2.48,14.53,14.53,0,0,0,11.56,1.73,1.85,1.85,0,0,0,1-3c-2-2.47-3.29-5.62-7.74-7.07A13.12,13.12,0,0,0,240.39,389Z"/><path class="cls-4" d="M224.28,391.13a2.13,2.13,0,0,0,.66,3.81,17.92,17.92,0,0,1,6.4,3.06,14.48,14.48,0,0,0,11.36,2.73,1.85,1.85,0,0,0,1.25-2.86c-1.74-2.63-2.78-5.88-7.09-7.72A13.12,13.12,0,0,0,224.28,391.13Z"/><path class="cls-4" d="M208.05,391.88a2.14,2.14,0,0,0,.33,3.86,17.84,17.84,0,0,1,6.1,3.6,14.48,14.48,0,0,0,11.08,3.71,1.84,1.84,0,0,0,1.5-2.74c-1.51-2.77-2.26-6.1-6.39-8.31A13.16,13.16,0,0,0,208.05,391.88Z"/><path class="cls-4" d="M191.82,391.22a2.13,2.13,0,0,0,0,3.87,17.84,17.84,0,0,1,5.76,4.12,14.51,14.51,0,0,0,10.72,4.66,1.84,1.84,0,0,0,1.73-2.6c-1.25-2.89-1.72-6.28-5.64-8.83A13.13,13.13,0,0,0,191.82,391.22Z"/><path class="cls-4" d="M175.71,389.14a2.13,2.13,0,0,0-.35,3.86,17.83,17.83,0,0,1,5.38,4.6A14.45,14.45,0,0,0,191,403.18a1.84,1.84,0,0,0,2-2.44c-1-3-1.16-6.4-4.84-9.29A13.16,13.16,0,0,0,175.71,389.14Z"/><path class="cls-4" d="M159.84,385.67a2.13,2.13,0,0,0-.69,3.81,18,18,0,0,1,5,5.06,14.49,14.49,0,0,0,9.73,6.45,1.85,1.85,0,0,0,2.16-2.26c-.74-3.07-.6-6.48-4-9.68A13.14,13.14,0,0,0,159.84,385.67Z"/><path class="cls-4" d="M144.33,380.83a2.13,2.13,0,0,0-1,3.74,17.84,17.84,0,0,1,4.51,5.46,14.45,14.45,0,0,0,9.14,7.28,1.85,1.85,0,0,0,2.35-2.06c-.47-3.12,0-6.51-3.17-10A13.14,13.14,0,0,0,144.33,380.83Z"/><path class="cls-4" d="M129.3,374.65a2.14,2.14,0,0,0-1.34,3.64,17.78,17.78,0,0,1,4,5.84,14.49,14.49,0,0,0,8.47,8,1.84,1.84,0,0,0,2.52-1.85c-.19-3.15.53-6.48-2.28-10.23A13.12,13.12,0,0,0,129.3,374.65Z"/><path class="cls-4" d="M114.87,367.19a2.14,2.14,0,0,0-1.65,3.51,17.67,17.67,0,0,1,3.48,6.16,14.52,14.52,0,0,0,7.74,8.76,1.84,1.84,0,0,0,2.67-1.63c.09-3.15,1.1-6.42-1.38-10.39A13.12,13.12,0,0,0,114.87,367.19Z"/><path class="cls-4" d="M101.14,358.5a2.14,2.14,0,0,0-2,3.35,17.59,17.59,0,0,1,2.93,6.45,14.49,14.49,0,0,0,7,9.39,1.85,1.85,0,0,0,2.8-1.39c.35-3.13,1.64-6.29-.47-10.47A13.14,13.14,0,0,0,101.14,358.5Z"/><path class="cls-4" d="M88.23,348.64A2.14,2.14,0,0,0,86,351.81a17.65,17.65,0,0,1,2.36,6.68,14.49,14.49,0,0,0,6.1,10,1.84,1.84,0,0,0,2.91-1.13c.64-3.09,2.19-6.13.45-10.48A13.16,13.16,0,0,0,88.23,348.64Z"/><path class="cls-4" d="M76.22,337.7a2.14,2.14,0,0,0-2.51,3,17.74,17.74,0,0,1,1.78,6.86A14.44,14.44,0,0,0,80.7,358a1.85,1.85,0,0,0,3-.88c.89-3,2.72-5.91,1.34-10.39A13.1,13.1,0,0,0,76.22,337.7Z"/><path class="cls-4" d="M65.2,325.75a2.13,2.13,0,0,0-2.74,2.73,17.81,17.81,0,0,1,1.16,7,14.46,14.46,0,0,0,4.28,10.87,1.85,1.85,0,0,0,3.07-.61c1.15-2.93,3.21-5.65,2.25-10.24A13.14,13.14,0,0,0,65.2,325.75Z"/><path class="cls-4" d="M55.28,312.89a2.14,2.14,0,0,0-3,2.48,17.66,17.66,0,0,1,.56,7.06,14.52,14.52,0,0,0,3.31,11.21,1.85,1.85,0,0,0,3.11-.34c1.41-2.83,3.7-5.36,3.13-10A13.12,13.12,0,0,0,55.28,312.89Z"/><path class="cls-4" d="M46.51,299.22a2.13,2.13,0,0,0-3.18,2.21,18,18,0,0,1-.06,7.08A14.49,14.49,0,0,0,45.59,320a1.84,1.84,0,0,0,3.12-.07c1.65-2.69,4.15-5,4-9.69A13.08,13.08,0,0,0,46.51,299.22Z"/><path class="cls-4" d="M39,284.82a2.13,2.13,0,0,0-3.35,1.93,17.66,17.66,0,0,1-.69,7.05,14.5,14.5,0,0,0,1.32,11.61,1.85,1.85,0,0,0,3.12.2c1.88-2.54,4.57-4.63,4.83-9.3A13.12,13.12,0,0,0,39,284.82Z"/><path class="cls-4" d="M32.71,269.83a2.14,2.14,0,0,0-3.52,1.62,17.87,17.87,0,0,1-1.29,7,14.49,14.49,0,0,0,.3,11.68,1.85,1.85,0,0,0,3.09.47c2.09-2.36,5-4.21,5.62-8.84A13.14,13.14,0,0,0,32.71,269.83Z"/><path class="cls-4" d="M27.78,254.35a2.14,2.14,0,0,0-3.65,1.31,17.59,17.59,0,0,1-1.89,6.83,14.53,14.53,0,0,0-.72,11.66,1.85,1.85,0,0,0,3,.74c2.28-2.17,5.3-3.76,6.37-8.33A13.1,13.1,0,0,0,27.78,254.35Z"/><path class="cls-4" d="M24.22,238.49a2.13,2.13,0,0,0-3.74,1A17.89,17.89,0,0,1,18,246.12a14.51,14.51,0,0,0-1.73,11.55,1.84,1.84,0,0,0,3,1c2.47-2,5.62-3.29,7.07-7.74A13.14,13.14,0,0,0,24.22,238.49Z"/><path class="cls-4" d="M22.06,222.4a2.14,2.14,0,0,0-3.82.65,17.75,17.75,0,0,1-3.06,6.4,14.46,14.46,0,0,0-2.72,11.35,1.83,1.83,0,0,0,2.85,1.26c2.63-1.74,5.89-2.78,7.73-7.09A13.15,13.15,0,0,0,22.06,222.4Z"/><path class="cls-4" d="M21.3,206.17a2.13,2.13,0,0,0-3.86.32,17.68,17.68,0,0,1-3.6,6.1,14.52,14.52,0,0,0-3.71,11.08,1.84,1.84,0,0,0,2.74,1.5c2.78-1.5,6.1-2.26,8.31-6.39A13.11,13.11,0,0,0,21.3,206.17Z"/><path class="cls-4" d="M22,189.93a2.14,2.14,0,0,0-3.88,0A17.8,17.8,0,0,1,14,195.68,14.48,14.48,0,0,0,9.31,206.4a1.84,1.84,0,0,0,2.6,1.73c2.89-1.26,6.27-1.72,8.83-5.64A13.16,13.16,0,0,0,22,189.93Z"/><path class="cls-4" d="M24.05,173.82a2.14,2.14,0,0,0-3.87-.35,17.69,17.69,0,0,1-4.6,5.38A14.54,14.54,0,0,0,10,189.12a1.84,1.84,0,0,0,2.43,1.95c3-1,6.41-1.16,9.3-4.85A13.17,13.17,0,0,0,24.05,173.82Z"/><path class="cls-4" d="M27.51,158a2.13,2.13,0,0,0-3.81-.69,17.9,17.9,0,0,1-5.06,5A14.49,14.49,0,0,0,12.19,172a1.84,1.84,0,0,0,2.26,2.15c3.07-.73,6.48-.6,9.68-4A13.1,13.1,0,0,0,27.51,158Z"/><path class="cls-4" d="M32.36,142.44a2.13,2.13,0,0,0-3.74-1,18,18,0,0,1-5.47,4.5,14.43,14.43,0,0,0-7.28,9.14,1.85,1.85,0,0,0,2.06,2.35c3.12-.47,6.51,0,10-3.17A13.12,13.12,0,0,0,32.36,142.44Z"/><path class="cls-4" d="M38.53,127.41a2.14,2.14,0,0,0-3.64-1.33,17.91,17.91,0,0,1-5.84,4,14.51,14.51,0,0,0-8,8.47,1.84,1.84,0,0,0,1.85,2.52c3.15-.19,6.49.53,10.23-2.28A13.13,13.13,0,0,0,38.53,127.41Z"/><path class="cls-4" d="M46,113a2.13,2.13,0,0,0-3.5-1.65,17.9,17.9,0,0,1-6.17,3.49,14.41,14.41,0,0,0-8.75,7.74,1.83,1.83,0,0,0,1.61,2.66c3.16.09,6.43,1.1,10.4-1.38A13.12,13.12,0,0,0,46,113Z"/><path class="cls-4" d="M54.69,99.25a2.14,2.14,0,0,0-3.35-2,17.84,17.84,0,0,1-6.45,2.94,14.52,14.52,0,0,0-9.4,6.94A1.86,1.86,0,0,0,36.87,110c3.14.35,6.3,1.64,10.48-.47A13.19,13.19,0,0,0,54.69,99.25Z"/><path class="cls-4" d="M64.54,86.34a2.14,2.14,0,0,0-3.17-2.24,17.82,17.82,0,0,1-6.68,2.36,14.48,14.48,0,0,0-10,6.11,1.85,1.85,0,0,0,1.14,2.91c3.08.63,6.13,2.19,10.47.44A13.14,13.14,0,0,0,64.54,86.34Z"/><path class="cls-4" d="M75.48,74.33a2.13,2.13,0,0,0-3-2.5,18.11,18.11,0,0,1-6.86,1.77,14.45,14.45,0,0,0-10.45,5.2,1.84,1.84,0,0,0,.87,3c3,.9,5.91,2.72,10.4,1.36A13.14,13.14,0,0,0,75.48,74.33Z"/><path class="cls-4" d="M87.43,63.32a2.13,2.13,0,0,0-2.73-2.75,17.63,17.63,0,0,1-7,1.16A14.53,14.53,0,0,0,66.83,66a1.84,1.84,0,0,0,.62,3.06c2.93,1.16,5.65,3.23,10.23,2.26A13.15,13.15,0,0,0,87.43,63.32Z"/><path class="cls-4" d="M100.3,53.39a2.14,2.14,0,0,0-2.49-3,17.85,17.85,0,0,1-7.06.55,14.48,14.48,0,0,0-11.21,3.31,1.84,1.84,0,0,0,.35,3.1c2.82,1.42,5.35,3.71,10,3.15A13.17,13.17,0,0,0,100.3,53.39Z"/><path class="cls-4" d="M114,44.62a2.14,2.14,0,0,0-2.21-3.18,17.84,17.84,0,0,1-7.09-.06A14.46,14.46,0,0,0,93.23,43.7a1.84,1.84,0,0,0,.07,3.12c2.69,1.65,5,4.16,9.69,4A13.11,13.11,0,0,0,114,44.62Z"/><path class="cls-4" d="M128.36,37.08a2.14,2.14,0,0,0-1.93-3.36,17.82,17.82,0,0,1-7.05-.68,14.5,14.5,0,0,0-11.61,1.31,1.85,1.85,0,0,0-.2,3.12c2.54,1.88,4.63,4.58,9.3,4.83A13.15,13.15,0,0,0,128.36,37.08Z"/><path class="cls-4" d="M143.35,30.82a2.14,2.14,0,0,0-1.62-3.52,17.9,17.9,0,0,1-7-1.29,14.49,14.49,0,0,0-11.68.3,1.85,1.85,0,0,0-.47,3.09c2.36,2.09,4.21,5,8.85,5.62A13.12,13.12,0,0,0,143.35,30.82Z"/><path class="cls-4" d="M158.84,25.89a2.14,2.14,0,0,0-1.32-3.64,17.71,17.71,0,0,1-6.82-1.9A14.51,14.51,0,0,0,139,19.63a1.85,1.85,0,0,0-.73,3C140.47,25,142.06,28,146.62,29A13.15,13.15,0,0,0,158.84,25.89Z"/></g><path class="cls-4" d="M113.48,148.43a3.71,3.71,0,0,0,1.6-.31,5.57,5.57,0,0,0,1.41-1l1.16,1.2a5.35,5.35,0,0,1-4.12,1.88,5.52,5.52,0,0,1-4-1.56,5.66,5.66,0,0,1,0-7.92,5.66,5.66,0,0,1,4.11-1.59,5.41,5.41,0,0,1,4.16,1.83l-1.15,1.25a5,5,0,0,0-1.45-1,4.07,4.07,0,0,0-1.59-.29,3.81,3.81,0,0,0-2.73,1.05,3.54,3.54,0,0,0-1.1,2.67,3.71,3.71,0,0,0,1.1,2.73A3.55,3.55,0,0,0,113.48,148.43Z"/><path class="cls-4" d="M128.39,142.85a3.1,3.1,0,0,1-2.31,3.33l2.8,3.89h-2.3l-2.55-3.6h-2.37v3.6h-1.8V139.38h4a5.76,5.76,0,0,1,3.5.82A3.14,3.14,0,0,1,128.39,142.85Zm-2.4,1.51a1.88,1.88,0,0,0,.55-1.52,1.62,1.62,0,0,0-.57-1.44,3.75,3.75,0,0,0-2-.39h-2.29v3.83h2.25A3.28,3.28,0,0,0,126,144.36Z"/><path class="cls-4" d="M131,139.38h1.8v10.69H131Z"/><path class="cls-4" d="M140.64,148.43a3.71,3.71,0,0,0,1.6-.31,5.57,5.57,0,0,0,1.41-1l1.16,1.2a5.35,5.35,0,0,1-4.12,1.88,5.54,5.54,0,0,1-4-1.56,5.66,5.66,0,0,1,0-7.92,5.66,5.66,0,0,1,4.11-1.59A5.4,5.4,0,0,1,145,141l-1.15,1.25a5.13,5.13,0,0,0-1.44-1,4.15,4.15,0,0,0-1.6-.29,3.82,3.82,0,0,0-2.73,1.05,3.54,3.54,0,0,0-1.1,2.67,3.71,3.71,0,0,0,1.1,2.73A3.57,3.57,0,0,0,140.64,148.43Z"/><path class="cls-4" d="M147,139.38h1.8v5.21l4.9-5.21H156l-4.3,4.68,4.36,6h-2.14l-3.55-4.68-1.56,1.68v3H147Z"/><path class="cls-4" d="M165.29,139.38v1.69h-5.7v2.83h5.12v1.61h-5.12v2.86h5.89v1.7h-7.7V139.38Z"/><path class="cls-4" d="M171.82,141v9H170v-9h-3.25v-1.65h8.29V141Z"/><path class="cls-4" d="M108.81,159h14.42v36.53h20.38v12.06h-34.8Z"/><path class="cls-4" d="M148.6,159H163v48.59H148.6Z"/><path class="cls-4" d="M166.9,159h15.39l11.09,33.62L204.47,159h14.77l-18.79,48.59h-15Z"/><path class="cls-4" d="M223.05,159h39.72v11.09h-25.3v7.62h22.94v11.1H237.47v7.69h26v11.09H223.05Z"/><path class="cls-4" d="M111.55,218a2.31,2.31,0,0,0-1.26.31,1.06,1.06,0,0,0-.5.95,1.12,1.12,0,0,0,.5,1,7.61,7.61,0,0,0,2.1.73,5.73,5.73,0,0,1,2.43,1.09,2.58,2.58,0,0,1,.82,2.08,2.76,2.76,0,0,1-1,2.23,4.14,4.14,0,0,1-2.72.85,6.36,6.36,0,0,1-4.36-1.69l1.11-1.34a5,5,0,0,0,3.3,1.38,2.19,2.19,0,0,0,1.35-.37,1.14,1.14,0,0,0,.51-1,1.1,1.1,0,0,0-.48-.95,5.12,5.12,0,0,0-1.62-.61,14.77,14.77,0,0,1-1.76-.51,4.08,4.08,0,0,1-1.06-.61,2.54,2.54,0,0,1-.93-2.16,2.63,2.63,0,0,1,1-2.24,4.25,4.25,0,0,1,2.62-.79,6.3,6.3,0,0,1,2,.33,5.22,5.22,0,0,1,1.71.93l-1,1.34a3.57,3.57,0,0,0-1.26-.69A4.85,4.85,0,0,0,111.55,218Z"/><path class="cls-4" d="M148.25,225.53a3.65,3.65,0,0,0,1.58-.31,5.54,5.54,0,0,0,1.38-1l1.14,1.17a5.25,5.25,0,0,1-4,1.84,5.41,5.41,0,0,1-3.94-1.53,5.55,5.55,0,0,1,0-7.77,5.53,5.53,0,0,1,4-1.56,5.28,5.28,0,0,1,4.08,1.8l-1.13,1.23a4.83,4.83,0,0,0-1.42-1,3.91,3.91,0,0,0-1.56-.29,3.71,3.71,0,0,0-2.67,1,3.47,3.47,0,0,0-1.08,2.62,3.59,3.59,0,0,0,1.07,2.67A3.45,3.45,0,0,0,148.25,225.53Z"/><path class="cls-4" d="M188.69,225.68a5.73,5.73,0,0,1-7.86,0,5.5,5.5,0,0,1,0-7.74,5.76,5.76,0,0,1,7.86,0,5.5,5.5,0,0,1,0,7.74Zm-1.3-6.56a3.67,3.67,0,0,0-5.26,0,3.93,3.93,0,0,0,0,5.39,3.67,3.67,0,0,0,5.26,0,3.9,3.9,0,0,0,0-5.39Z"/><path class="cls-4" d="M226.52,220.05a3,3,0,0,1-2.26,3.27l2.74,3.81h-2.25l-2.5-3.52h-2.33v3.52h-1.77V216.65h3.9a5.67,5.67,0,0,1,3.44.81A3.08,3.08,0,0,1,226.52,220.05Zm-2.35,1.49a1.88,1.88,0,0,0,.54-1.5,1.58,1.58,0,0,0-.56-1.4,3.63,3.63,0,0,0-2-.39h-2.25V222h2.21A3.25,3.25,0,0,0,224.17,221.54Z"/><path class="cls-4" d="M262.07,216.65v1.66h-5.59v2.78h5v1.57h-5v2.81h5.77v1.66h-7.54V216.65Z"/></g></g></svg>