<svg xmlns="http://www.w3.org/2000/svg" width="16.741" height="15.696" viewBox="0 0 16.741 15.696">
  <g id="star-fill" transform="translate(0)">
    <path id="Path_548" data-name="Path 548" d="M3.781,16.76A.555.555,0,0,1,3,16.14l.868-4.949L.183,7.679a.582.582,0,0,1,.3-.994L5.6,5.957,7.889,1.43a.537.537,0,0,1,.97,0l2.285,4.528,5.125.728a.582.582,0,0,1,.3.994l-3.686,3.511.868,4.949a.555.555,0,0,1-.781.619L8.372,14.4,3.78,16.76Z" transform="translate(-0.003 -1.123)" fill="#2f90d1"/>
  </g>
</svg>
